<svg width="24" height="25" viewBox="0 0 24 25" fill="none" xmlns="http://www.w3.org/2000/svg">
<path d="M12 1.45996C18.0975 1.45996 23.04 6.40252 23.04 12.5C23.04 18.5974 18.0975 23.54 12 23.54C5.90258 23.54 0.960022 18.5974 0.960022 12.5C0.960022 6.40252 5.90258 1.45996 12 1.45996ZM15.8083 17C16.0114 16.3769 16.9627 10.1676 17.0803 8.94412C17.1159 8.57356 16.9987 8.32732 16.7693 8.2174C16.4919 8.08396 16.081 8.15068 15.6043 8.32252C14.9506 8.5582 6.59282 12.1068 6.10994 12.3123C5.65202 12.5067 5.21906 12.7188 5.21906 13.026C5.21906 13.242 5.34722 13.3635 5.7005 13.4897C6.06818 13.6208 6.9941 13.9016 7.54082 14.0523C8.06738 14.1977 8.6669 14.0715 9.0029 13.8627C9.35906 13.6414 13.4693 10.891 13.7645 10.65C14.0592 10.4091 14.2944 10.7177 14.0535 10.9592C13.8125 11.2001 10.9911 13.9385 10.6191 14.3177C10.1674 14.778 10.488 15.2552 10.7909 15.4462C11.137 15.6641 13.6258 17.3336 14.0007 17.6014C14.3755 17.8692 14.7557 17.9907 15.1037 17.9907C15.4517 17.9907 15.6351 17.5323 15.8083 17Z" fill="black"/>
</svg>
