<svg width="24" height="25" viewBox="0 0 24 25" fill="none" xmlns="http://www.w3.org/2000/svg">
<g clip-path="url(#clip0_11_128)">
<path d="M13.162 19.494C13.771 19.494 14.02 19.088 14.013 18.579C13.982 16.662 14.727 15.63 16.072 16.975C17.56 18.463 17.868 19.494 19.675 19.494H22.875C23.683 19.494 24.001 19.234 24.001 18.826C24.001 17.963 22.58 16.44 21.376 15.322C19.69 13.757 19.611 13.72 21.063 11.836C22.864 9.497 25.22 6.5 23.136 6.5H19.155C18.383 6.5 18.327 6.935 18.052 7.583C17.057 9.93 15.166 12.97 14.448 12.505C13.697 12.02 14.041 10.099 14.098 7.244C14.113 6.49 14.109 5.973 12.957 5.705C12.328 5.56 11.716 5.5 11.148 5.5C8.875 5.5 7.307 6.453 8.198 6.619C9.769 6.912 9.618 10.311 9.252 11.779C8.614 14.335 6.216 9.755 5.217 7.474C4.976 6.926 4.902 6.5 4.042 6.5H0.787C0.295 6.5 0 6.66 0 7.016C0 7.618 2.96 13.736 5.786 16.786C8.542 19.761 11.266 19.494 13.162 19.494Z" fill="black"/>
</g>
<defs>
<clipPath id="clip0_11_128">
<rect width="24" height="24" fill="white" transform="translate(0 0.5)"/>
</clipPath>
</defs>
</svg>
