<svg width="345" height="270" viewBox="0 0 345 270" fill="none" xmlns="http://www.w3.org/2000/svg">
<g clip-path="url(#clip0_2_24)">
<path d="M27.6502 231.604H337.418" stroke="#999999" stroke-width="0.75" stroke-miterlimit="10"/>
<path d="M27.6502 194.604H337.418" stroke="#999999" stroke-width="0.75" stroke-miterlimit="10"/>
<path d="M27.6502 157.605H337.418" stroke="#999999" stroke-width="0.75" stroke-miterlimit="10"/>
<path d="M27.6502 120.633H337.418" stroke="#999999" stroke-width="0.75" stroke-miterlimit="10"/>
<path d="M27.6502 83.6339H337.418" stroke="#999999" stroke-width="0.75" stroke-miterlimit="10"/>
<path d="M27.6502 46.6343H337.418" stroke="#999999" stroke-width="0.75" stroke-miterlimit="10"/>
<path d="M3.97159 226.41V235.138H2.91477V227.518H2.86364L0.732955 228.933V227.859L2.91477 226.41H3.97159ZM9.32812 235.257C8.68608 235.257 8.1392 235.082 7.6875 234.733C7.2358 234.381 6.89063 233.871 6.65199 233.203C6.41335 232.533 6.29403 231.723 6.29403 230.774C6.29403 229.831 6.41335 229.025 6.65199 228.358C6.89347 227.687 7.24006 227.176 7.69176 226.824C8.14631 226.469 8.69176 226.291 9.32812 226.291C9.96449 226.291 10.5085 226.469 10.9602 226.824C11.4148 227.176 11.7614 227.687 12 228.358C12.2415 229.025 12.3622 229.831 12.3622 230.774C12.3622 231.723 12.2429 232.533 12.0043 233.203C11.7656 233.871 11.4205 234.381 10.9688 234.733C10.517 235.082 9.97017 235.257 9.32812 235.257ZM9.32812 234.319C9.96449 234.319 10.4588 234.013 10.8111 233.399C11.1634 232.785 11.3395 231.91 11.3395 230.774C11.3395 230.018 11.2585 229.375 11.0966 228.844C10.9375 228.312 10.7074 227.908 10.4062 227.629C10.108 227.351 9.74858 227.212 9.32812 227.212C8.69744 227.212 8.20455 227.523 7.84943 228.145C7.49432 228.764 7.31676 229.641 7.31676 230.774C7.31676 231.53 7.39631 232.172 7.5554 232.7C7.71449 233.229 7.94318 233.631 8.24148 233.906C8.54261 234.182 8.90483 234.319 9.32812 234.319Z" fill="#4C4C4C"/>
<path d="M0.903409 196.656V195.889L3.78409 192.735C4.12216 192.366 4.40057 192.045 4.61932 191.772C4.83807 191.497 5 191.238 5.10511 190.997C5.21307 190.752 5.26705 190.497 5.26705 190.23C5.26705 189.923 5.19318 189.657 5.04545 189.433C4.90057 189.208 4.7017 189.035 4.44886 188.913C4.19602 188.791 3.91193 188.73 3.59659 188.73C3.26136 188.73 2.96875 188.799 2.71875 188.939C2.47159 189.075 2.27983 189.267 2.14347 189.514C2.00994 189.761 1.94318 190.051 1.94318 190.383H0.9375C0.9375 189.872 1.0554 189.423 1.29119 189.037C1.52699 188.65 1.84801 188.349 2.25426 188.133C2.66335 187.917 3.12216 187.809 3.63068 187.809C4.14205 187.809 4.59517 187.917 4.99006 188.133C5.38494 188.349 5.6946 188.64 5.91903 189.007C6.14347 189.373 6.25568 189.781 6.25568 190.23C6.25568 190.551 6.19744 190.865 6.08097 191.171C5.96733 191.475 5.76847 191.815 5.48438 192.19C5.20312 192.562 4.8125 193.017 4.3125 193.554L2.35227 195.65V195.718H6.40909V196.656H0.903409ZM11.0156 196.775C10.3736 196.775 9.8267 196.6 9.375 196.251C8.9233 195.899 8.57813 195.389 8.33949 194.721C8.10085 194.051 7.98153 193.241 7.98153 192.292C7.98153 191.349 8.10085 190.544 8.33949 189.876C8.58097 189.206 8.92756 188.694 9.37926 188.342C9.83381 187.987 10.3793 187.809 11.0156 187.809C11.652 187.809 12.196 187.987 12.6477 188.342C13.1023 188.694 13.4489 189.206 13.6875 189.876C13.929 190.544 14.0497 191.349 14.0497 192.292C14.0497 193.241 13.9304 194.051 13.6918 194.721C13.4531 195.389 13.108 195.899 12.6562 196.251C12.2045 196.6 11.6577 196.775 11.0156 196.775ZM11.0156 195.838C11.652 195.838 12.1463 195.531 12.4986 194.917C12.8509 194.304 13.027 193.429 13.027 192.292C13.027 191.537 12.946 190.893 12.7841 190.362C12.625 189.831 12.3949 189.426 12.0938 189.147C11.7955 188.869 11.4361 188.73 11.0156 188.73C10.3849 188.73 9.89205 189.041 9.53693 189.663C9.18182 190.282 9.00426 191.159 9.00426 192.292C9.00426 193.048 9.08381 193.69 9.2429 194.218C9.40199 194.747 9.63068 195.149 9.92898 195.424C10.2301 195.7 10.5923 195.838 11.0156 195.838Z" fill="#4C4C4C"/>
<path d="M3.85227 158.293C3.28977 158.293 2.78835 158.197 2.34801 158.004C1.91051 157.81 1.5625 157.542 1.30398 157.198C1.0483 156.852 0.909091 156.45 0.886364 155.992H1.96023C1.98295 156.273 2.07955 156.516 2.25 156.721C2.42045 156.923 2.64347 157.079 2.91903 157.19C3.1946 157.3 3.5 157.356 3.83523 157.356C4.21023 157.356 4.54261 157.29 4.83239 157.16C5.12216 157.029 5.34943 156.847 5.5142 156.614C5.67898 156.381 5.76136 156.111 5.76136 155.805C5.76136 155.484 5.68182 155.201 5.52273 154.957C5.36364 154.71 5.13068 154.516 4.82386 154.377C4.51705 154.238 4.14205 154.168 3.69886 154.168H3V153.231H3.69886C4.04545 153.231 4.34943 153.168 4.6108 153.043C4.875 152.918 5.08097 152.742 5.22869 152.515C5.37926 152.288 5.45455 152.021 5.45455 151.714C5.45455 151.418 5.3892 151.161 5.25852 150.942C5.12784 150.724 4.94318 150.553 4.70455 150.431C4.46875 150.309 4.19034 150.248 3.86932 150.248C3.56818 150.248 3.28409 150.303 3.01705 150.414C2.75284 150.522 2.53693 150.68 2.36932 150.887C2.2017 151.092 2.1108 151.339 2.09659 151.629H1.07386C1.09091 151.171 1.22869 150.771 1.48722 150.427C1.74574 150.08 2.08381 149.81 2.50142 149.617C2.92188 149.424 3.38352 149.327 3.88636 149.327C4.42614 149.327 4.8892 149.437 5.27557 149.656C5.66193 149.871 5.95881 150.157 6.16619 150.512C6.37358 150.867 6.47727 151.251 6.47727 151.663C6.47727 152.154 6.34801 152.573 6.08949 152.92C5.83381 153.266 5.4858 153.506 5.04545 153.64V153.708C5.59659 153.799 6.02699 154.033 6.33665 154.411C6.64631 154.786 6.80114 155.251 6.80114 155.805C6.80114 156.279 6.67188 156.705 6.41335 157.083C6.15767 157.458 5.80824 157.754 5.36506 157.969C4.92188 158.185 4.41761 158.293 3.85227 158.293ZM11.3906 158.293C10.7486 158.293 10.2017 158.119 9.75 157.769C9.2983 157.417 8.95313 156.907 8.71449 156.239C8.47585 155.569 8.35653 154.759 8.35653 153.81C8.35653 152.867 8.47585 152.062 8.71449 151.394C8.95597 150.724 9.30256 150.212 9.75426 149.86C10.2088 149.505 10.7543 149.327 11.3906 149.327C12.027 149.327 12.571 149.505 13.0227 149.86C13.4773 150.212 13.8239 150.724 14.0625 151.394C14.304 152.062 14.4247 152.867 14.4247 153.81C14.4247 154.759 14.3054 155.569 14.0668 156.239C13.8281 156.907 13.483 157.417 13.0312 157.769C12.5795 158.119 12.0327 158.293 11.3906 158.293ZM11.3906 157.356C12.027 157.356 12.5213 157.049 12.8736 156.435C13.2259 155.822 13.402 154.947 13.402 153.81C13.402 153.055 13.321 152.411 13.1591 151.88C13 151.349 12.7699 150.944 12.4688 150.665C12.1705 150.387 11.8111 150.248 11.3906 150.248C10.7599 150.248 10.267 150.559 9.91193 151.181C9.55682 151.8 9.37926 152.677 9.37926 153.81C9.37926 154.566 9.45881 155.208 9.6179 155.736C9.77699 156.265 10.0057 156.667 10.304 156.942C10.6051 157.218 10.9673 157.356 11.3906 157.356Z" fill="#4C4C4C"/>
<path d="M0.698864 117.902V117.033L4.53409 110.965H5.16477V112.311H4.73864L1.84091 116.897V116.965H7.00568V117.902H0.698864ZM4.80682 119.692V117.638V117.233V110.965H5.8125V119.692H4.80682ZM11.4492 119.811C10.8072 119.811 10.2603 119.637 9.80859 119.287C9.35689 118.935 9.01172 118.425 8.77308 117.757C8.53445 117.087 8.41513 116.277 8.41513 115.329C8.41513 114.385 8.53445 113.58 8.77308 112.912C9.01456 112.242 9.36115 111.73 9.81286 111.378C10.2674 111.023 10.8129 110.846 11.4492 110.846C12.0856 110.846 12.6296 111.023 13.0813 111.378C13.5359 111.73 13.8825 112.242 14.1211 112.912C14.3626 113.58 14.4833 114.385 14.4833 115.329C14.4833 116.277 14.364 117.087 14.1254 117.757C13.8867 118.425 13.5415 118.935 13.0898 119.287C12.6381 119.637 12.0913 119.811 11.4492 119.811ZM11.4492 118.874C12.0856 118.874 12.5799 118.567 12.9322 117.954C13.2844 117.34 13.4606 116.465 13.4606 115.329C13.4606 114.573 13.3796 113.929 13.2177 113.398C13.0586 112.867 12.8285 112.462 12.5273 112.184C12.229 111.905 11.8697 111.766 11.4492 111.766C10.8185 111.766 10.3256 112.077 9.97053 112.699C9.61541 113.319 9.43786 114.195 9.43786 115.329C9.43786 116.084 9.5174 116.726 9.67649 117.255C9.83558 117.783 10.0643 118.185 10.3626 118.461C10.6637 118.736 11.0259 118.874 11.4492 118.874Z" fill="#4C4C4C"/>
<path d="M3.63068 81.3296C3.13068 81.3296 2.6804 81.2302 2.27983 81.0313C1.87926 80.8325 1.55824 80.5597 1.31676 80.2132C1.07528 79.8666 0.943182 79.4717 0.920455 79.0285H1.94318C1.98295 79.4234 2.16193 79.7501 2.48011 80.0086C2.80114 80.2643 3.18466 80.3921 3.63068 80.3921C3.98864 80.3921 4.30682 80.3083 4.58523 80.1407C4.86648 79.9731 5.08665 79.743 5.24574 79.4504C5.40767 79.1549 5.48864 78.8211 5.48864 78.4489C5.48864 78.0683 5.40483 77.7288 5.23722 77.4305C5.07244 77.1293 4.84517 76.8921 4.5554 76.7188C4.26563 76.5455 3.93466 76.4575 3.5625 76.4546C3.29545 76.4518 3.02131 76.493 2.74006 76.5782C2.45881 76.6606 2.22727 76.7671 2.04545 76.8978L1.05682 76.7785L1.58523 72.483H6.11932V73.4205H2.47159L2.16477 75.9944H2.21591C2.39489 75.8524 2.61932 75.7345 2.8892 75.6407C3.15909 75.547 3.44034 75.5001 3.73295 75.5001C4.26705 75.5001 4.7429 75.6279 5.16051 75.8836C5.58097 76.1364 5.91051 76.483 6.14915 76.9234C6.39062 77.3637 6.51136 77.8666 6.51136 78.4319C6.51136 78.9887 6.38636 79.4859 6.13636 79.9234C5.8892 80.358 5.5483 80.7018 5.11364 80.9546C4.67898 81.2046 4.18466 81.3296 3.63068 81.3296ZM11.0508 81.3296C10.4087 81.3296 9.86186 81.1549 9.41016 80.8055C8.95845 80.4532 8.61328 79.9433 8.37464 79.2757C8.13601 78.6052 8.01669 77.7955 8.01669 76.8467C8.01669 75.9035 8.13601 75.0981 8.37464 74.4305C8.61612 73.76 8.96271 73.2487 9.41442 72.8964C9.86896 72.5413 10.4144 72.3637 11.0508 72.3637C11.6871 72.3637 12.2312 72.5413 12.6829 72.8964C13.1374 73.2487 13.484 73.76 13.7227 74.4305C13.9641 75.0981 14.0849 75.9035 14.0849 76.8467C14.0849 77.7955 13.9656 78.6052 13.7269 79.2757C13.4883 79.9433 13.1431 80.4532 12.6914 80.8055C12.2397 81.1549 11.6928 81.3296 11.0508 81.3296ZM11.0508 80.3921C11.6871 80.3921 12.1815 80.0853 12.5337 79.4717C12.886 78.858 13.0621 77.983 13.0621 76.8467C13.0621 76.091 12.9812 75.4475 12.8192 74.9163C12.6602 74.385 12.43 73.9802 12.1289 73.7018C11.8306 73.4234 11.4712 73.2842 11.0508 73.2842C10.4201 73.2842 9.9272 73.5953 9.57209 74.2174C9.21697 74.8367 9.03942 75.7132 9.03942 76.8467C9.03942 77.6024 9.11896 78.2444 9.27805 78.7728C9.43714 79.3012 9.66584 79.7032 9.96413 79.9788C10.2653 80.2543 10.6275 80.3921 11.0508 80.3921Z" fill="#4C4C4C"/>
<path d="M3.80114 42.8478C3.44318 42.8421 3.08523 42.7739 2.72727 42.6432C2.36932 42.5126 2.04261 42.2924 1.74716 41.9827C1.4517 41.6702 1.21449 41.2484 1.03551 40.7171C0.856534 40.183 0.767045 39.5126 0.767045 38.7057C0.767045 37.933 0.839489 37.2484 0.984375 36.6518C1.12926 36.0523 1.33949 35.5481 1.61506 35.139C1.89063 34.727 2.22301 34.4145 2.61222 34.2015C3.00426 33.9884 3.44602 33.8819 3.9375 33.8819C4.42614 33.8819 4.8608 33.9799 5.24148 34.1759C5.625 34.3691 5.9375 34.639 6.17898 34.9856C6.42045 35.3322 6.5767 35.7313 6.64773 36.183H5.60795C5.51136 35.791 5.32386 35.4657 5.04545 35.2072C4.76705 34.9486 4.39773 34.8194 3.9375 34.8194C3.26136 34.8194 2.72869 35.1134 2.33949 35.7015C1.95313 36.2895 1.75852 37.1148 1.75568 38.1773H1.82386C1.98295 37.9359 2.17188 37.7299 2.39062 37.5594C2.61222 37.3861 2.85653 37.2526 3.12358 37.1589C3.39063 37.0651 3.6733 37.0182 3.97159 37.0182C4.47159 37.0182 4.92898 37.1432 5.34375 37.3932C5.75852 37.6404 6.09091 37.9827 6.34091 38.4202C6.59091 38.8549 6.71591 39.3535 6.71591 39.916C6.71591 40.4557 6.59517 40.9501 6.35369 41.3989C6.11222 41.8449 5.77273 42.2001 5.33523 42.4643C4.90057 42.7256 4.3892 42.8535 3.80114 42.8478ZM3.80114 41.9103C4.15909 41.9103 4.48011 41.8208 4.7642 41.6418C5.05114 41.4628 5.27699 41.2228 5.44176 40.9217C5.60938 40.6205 5.69318 40.2853 5.69318 39.916C5.69318 39.5552 5.61222 39.227 5.45028 38.9316C5.29119 38.6333 5.07102 38.3961 4.78977 38.2199C4.51136 38.0438 4.19318 37.9557 3.83523 37.9557C3.56534 37.9557 3.31392 38.0097 3.08097 38.1177C2.84801 38.2228 2.64347 38.3677 2.46733 38.5523C2.29403 38.737 2.15767 38.9486 2.05824 39.1873C1.95881 39.4231 1.90909 39.6717 1.90909 39.933C1.90909 40.2796 1.99006 40.6035 2.15199 40.9046C2.31676 41.2057 2.54119 41.4486 2.82528 41.6333C3.11222 41.818 3.4375 41.9103 3.80114 41.9103ZM11.2383 42.8478C10.5962 42.8478 10.0494 42.6731 9.59766 42.3236C9.14595 41.9714 8.80078 41.4614 8.56214 40.7938C8.32351 40.1234 8.20419 39.3137 8.20419 38.3648C8.20419 37.4217 8.32351 36.6163 8.56214 35.9486C8.80362 35.2782 9.15021 34.7668 9.60192 34.4145C10.0565 34.0594 10.6019 33.8819 11.2383 33.8819C11.8746 33.8819 12.4187 34.0594 12.8704 34.4145C13.3249 34.7668 13.6715 35.2782 13.9102 35.9486C14.1516 36.6163 14.2724 37.4217 14.2724 38.3648C14.2724 39.3137 14.1531 40.1234 13.9144 40.7938C13.6758 41.4614 13.3306 41.9714 12.8789 42.3236C12.4272 42.6731 11.8803 42.8478 11.2383 42.8478ZM11.2383 41.9103C11.8746 41.9103 12.369 41.6035 12.7212 40.9898C13.0735 40.3762 13.2496 39.5012 13.2496 38.3648C13.2496 37.6092 13.1687 36.9657 13.0067 36.4344C12.8477 35.9032 12.6175 35.4984 12.3164 35.2199C12.0181 34.9415 11.6587 34.8023 11.2383 34.8023C10.6076 34.8023 10.1147 35.1134 9.75959 35.7356C9.40447 36.3549 9.22692 37.2313 9.22692 38.3648C9.22692 39.1205 9.30646 39.7626 9.46555 40.291C9.62464 40.8194 9.85334 41.2214 10.1516 41.4969C10.4528 41.7725 10.815 41.9103 11.2383 41.9103Z" fill="#4C4C4C"/>
<path d="M337.418 268.575H27.6502V0" stroke="#999999" stroke-width="0.75" stroke-miterlimit="10"/>
<path d="M27.6502 268.575L120.121 172.883L191.385 209.142L322.509 103.416" stroke="#0066FF" stroke-linecap="round" stroke-linejoin="round"/>
<path d="M120.121 178.47C123.538 178.47 126.307 175.701 126.307 172.285C126.307 168.868 123.538 166.099 120.121 166.099C116.705 166.099 113.936 168.868 113.936 172.285C113.936 175.701 116.705 178.47 120.121 178.47Z" fill="white" stroke="#0066FF" stroke-miterlimit="10"/>
<path d="M192.81 215.327C196.226 215.327 198.996 212.558 198.996 209.142C198.996 205.725 196.226 202.956 192.81 202.956C189.394 202.956 186.624 205.725 186.624 209.142C186.624 212.558 189.394 215.327 192.81 215.327Z" fill="white" stroke="#0066FF" stroke-miterlimit="10"/>
<path d="M328.695 103.416C328.695 106.837 325.93 109.602 322.509 109.602C319.089 109.602 316.324 106.837 316.324 103.416C316.324 99.9958 319.089 97.2308 322.509 97.2308C325.93 97.2308 328.695 99.9958 328.695 103.416Z" fill="white" stroke="#0066FF" stroke-miterlimit="10"/>
<path d="M337.418 213.56L312.789 216.239L256.491 209.142L178.101 248.906L123.941 218.862L27.6502 268.575" stroke="#0094FF" stroke-linecap="round" stroke-linejoin="round"/>
<path d="M130.098 218.862C130.098 222.283 127.333 225.048 123.913 225.048C120.492 225.048 117.727 222.283 117.727 218.862C117.727 215.441 120.492 212.676 123.913 212.676C127.333 212.676 130.098 215.441 130.098 218.862Z" fill="white" stroke="#0094FF" stroke-miterlimit="10"/>
<path d="M184.258 248.906C184.258 252.327 181.493 255.092 178.073 255.092C174.652 255.092 171.887 252.327 171.887 248.906C171.887 245.486 174.652 242.721 178.073 242.721C181.493 242.721 184.258 245.486 184.258 248.906Z" fill="white" stroke="#0094FF" stroke-miterlimit="10"/>
<path d="M264.073 209.142C264.073 212.562 261.308 215.327 257.888 215.327C254.467 215.327 251.702 212.562 251.702 209.142C251.702 205.721 254.467 202.956 257.888 202.956C261.308 202.956 264.073 205.721 264.073 209.142Z" fill="white" stroke="#0094FF" stroke-miterlimit="10"/>
<path d="M343.575 213.56C343.575 216.981 340.81 219.746 337.389 219.746C333.969 219.746 331.203 216.981 331.203 213.56C331.203 210.139 333.969 207.374 337.389 207.374C340.81 207.374 343.575 210.139 343.575 213.56Z" fill="white" stroke="#0094FF" stroke-miterlimit="10"/>
</g>
<defs>
<clipPath id="clip0_2_24">
<rect width="345" height="270" fill="white"/>
</clipPath>
</defs>
</svg>
