<svg width="255" height="54" viewBox="0 0 255 54" fill="none" xmlns="http://www.w3.org/2000/svg">
<g clip-path="url(#clip0_91_4)">
<path d="M0 23.1051C0 13.4787 0 8.66543 2.45148 5.29125C3.24321 4.20154 4.20154 3.24321 5.29125 2.45148C8.66543 0 13.4787 0 23.1051 0H30.3788C40.0053 0 44.8186 0 48.1927 2.45148C49.2825 3.24321 50.2408 4.20154 51.0325 5.29125C53.4839 8.66543 53.4839 13.4787 53.4839 23.1051V30.3788C53.4839 40.0053 53.4839 44.8186 51.0325 48.1927C50.2408 49.2825 49.2825 50.2408 48.1927 51.0325C44.8186 53.4839 40.0053 53.4839 30.3788 53.4839H23.1051C13.4787 53.4839 8.66543 53.4839 5.29125 51.0325C4.20154 50.2408 3.24321 49.2825 2.45148 48.1927C0 44.8186 0 40.0053 0 30.3788V23.1051Z" fill="#313131"/>
<path d="M23.8127 21.6386C25.7391 21.6386 27.2302 22.0988 28.2854 23.0191C29.3532 23.9394 29.8868 25.1358 29.8868 26.6083C29.8868 28.0808 29.3532 29.2775 28.2854 30.1978C27.2302 31.1181 25.7391 31.5783 23.8127 31.5783H21.8537C21.5633 31.5783 21.3278 31.8136 21.3278 32.104V32.8929C21.3278 33.1834 21.0924 33.4189 20.8019 33.4189H18.5405C18.2501 33.4189 18.0146 33.1834 18.0146 32.8929V32.104C18.0146 31.8136 17.7792 31.5783 17.4887 31.5783H15.5297C13.6032 31.5783 12.1061 31.1181 11.0385 30.1978C9.98321 29.2775 9.45557 28.0808 9.45557 26.6083C9.45557 25.1358 9.98321 23.9394 11.0385 23.0191C12.1061 22.0988 13.6032 21.6386 15.5297 21.6386H17.4887C17.7792 21.6386 18.0146 21.4032 18.0146 21.1127V20.3239C18.0146 20.0334 18.2501 19.798 18.5405 19.798H20.8019C21.0924 19.798 21.3278 20.0334 21.3278 20.3239V21.1127C21.3278 21.4032 21.5633 21.6386 21.8537 21.6386H23.8127ZM15.6218 28.9091H17.7517C17.8969 28.9091 18.0146 28.7916 18.0146 28.6462V24.5706C18.0146 24.4253 17.8969 24.3075 17.7517 24.3075H15.6218C14.7751 24.3075 14.1186 24.5162 13.6523 24.9334C13.186 25.3507 12.9528 25.9089 12.9528 26.6083C12.9528 27.3079 13.186 27.8662 13.6523 28.2834C14.1186 28.7007 14.7751 28.9091 15.6218 28.9091ZM23.7207 28.9091C24.5673 28.9091 25.2238 28.7007 25.6902 28.2834C26.1564 27.8662 26.3896 27.3079 26.3896 26.6083C26.3896 25.9089 26.1564 25.3507 25.6902 24.9334C25.2238 24.5162 24.5673 24.3075 23.7207 24.3075H21.5908C21.4455 24.3075 21.3278 24.4253 21.3278 24.5706V28.6462C21.3278 28.7916 21.4455 28.9091 21.5908 28.9091H23.7207Z" fill="#585858"/>
<path d="M43.6499 20.1661C43.9403 20.1661 44.1759 20.4016 44.1759 20.692V22.4932C44.1759 22.7837 43.9403 23.0191 43.6499 23.0191H39.5479C39.2574 23.0191 39.0219 23.2546 39.0219 23.5451V32.5248C39.0219 32.8153 38.7866 33.0508 38.4961 33.0508H36.2347C35.9442 33.0508 35.7087 32.8153 35.7087 32.5248V23.5451C35.7087 23.2546 35.4734 23.0191 35.183 23.0191H31.0809C30.7905 23.0191 30.5549 22.7837 30.5549 22.4932V20.692C30.5549 20.4016 30.7905 20.1661 31.0809 20.1661H43.6499Z" fill="#585858"/>
<path d="M87.2747 40.1064C86.9268 40.1064 86.7529 40.1064 86.631 40.0178C86.5916 39.9891 86.557 39.9546 86.5283 39.9151C86.4397 39.7932 86.4397 39.6193 86.4397 39.2714V37.6709C86.4397 37.3248 86.4397 37.1516 86.3551 37.0316C86.3271 36.9917 86.2955 36.959 86.2568 36.9293C86.14 36.8403 85.9617 36.8336 85.6047 36.8201C84.0557 36.7615 82.5844 36.5378 81.1907 36.1493C79.5754 35.6917 78.1622 34.9918 76.9509 34.0497C75.7666 33.1076 74.8242 31.9098 74.1244 30.456C73.4245 29.0025 73.0747 27.2662 73.0747 25.2473C73.0747 23.2553 73.4245 21.5326 74.1244 20.079C74.8242 18.6254 75.78 17.441 76.9913 16.5257C78.2025 15.5836 79.6159 14.8971 81.231 14.4664C82.6214 14.079 84.0793 13.8555 85.6047 13.7961C85.9619 13.7822 86.1404 13.7753 86.257 13.6863C86.2958 13.6568 86.3273 13.624 86.3553 13.5842C86.4397 13.4642 86.4397 13.2911 86.4397 12.9449V11.506C86.4397 11.1581 86.4397 10.9841 86.5283 10.8622C86.557 10.8228 86.5916 10.7881 86.631 10.7595C86.7529 10.6709 86.9268 10.6709 87.2747 10.6709H90.4499C90.7979 10.6709 90.9718 10.6709 91.0937 10.7595C91.1331 10.7881 91.1679 10.8228 91.1964 10.8622C91.285 10.9841 91.285 11.1581 91.285 11.506V12.9449C91.285 13.2911 91.285 13.4642 91.3696 13.5843C91.3976 13.6241 91.4291 13.6569 91.4679 13.6864C91.5847 13.7754 91.7632 13.7822 92.12 13.7957C93.6653 13.8545 95.1232 14.0781 96.4939 14.4664C98.1359 14.9241 99.549 15.6239 100.733 16.5661C101.918 17.4813 102.847 18.6657 103.52 20.1194C104.219 21.573 104.569 23.2822 104.569 25.2473C104.569 27.2393 104.219 28.9756 103.52 30.456C102.847 31.9098 101.918 33.1076 100.733 34.0497C99.549 34.9918 98.1359 35.6917 96.4939 36.1493C95.1232 36.5378 93.6653 36.7613 92.12 36.8201C91.7632 36.8336 91.5847 36.8405 91.4679 36.9296C91.4291 36.959 91.3976 36.9917 91.3696 37.0316C91.285 37.1516 91.285 37.3248 91.285 37.6709V39.2714C91.285 39.6193 91.285 39.7932 91.1964 39.9151C91.1679 39.9546 91.1331 39.9891 91.0937 40.0178C90.9718 40.1064 90.7979 40.1064 90.4499 40.1064H87.2747ZM91.9985 18.0437C91.6651 18.0242 91.4985 18.0145 91.3684 18.1022C91.3281 18.1294 91.2884 18.1667 91.259 18.2054C91.1639 18.3301 91.1639 18.505 91.1639 18.8548V31.7609C91.1639 32.1108 91.1639 32.2858 91.259 32.4105C91.2884 32.4492 91.3281 32.4865 91.3684 32.5137C91.4985 32.6013 91.6651 32.5915 91.9985 32.5721C92.849 32.5225 93.6611 32.3959 94.4344 32.1924C95.4843 31.8963 96.3861 31.4656 97.1398 30.9002C97.9205 30.3081 98.5263 29.5543 98.9567 28.639C99.4146 27.6969 99.6434 26.5664 99.6434 25.2473C99.6434 23.9014 99.4146 22.7708 98.9567 21.8556C98.5263 20.9404 97.9205 20.2001 97.1398 19.6348C96.3861 19.0695 95.4843 18.6657 94.4344 18.4235C93.6611 18.2199 92.849 18.0933 91.9985 18.0437ZM78.0006 25.2473C78.0006 26.5664 78.2296 27.6969 78.6873 28.639C79.1449 29.5812 79.7638 30.3485 80.5446 30.9405C81.3251 31.5059 82.2269 31.9232 83.2499 32.1924C84.039 32.3947 84.8511 32.5211 85.6858 32.5711C86.0187 32.5913 86.1852 32.6013 86.3155 32.5137C86.3558 32.4865 86.3957 32.449 86.4251 32.4105C86.5204 32.2858 86.5204 32.1108 86.5204 31.7609V18.8548C86.5204 18.505 86.5204 18.3301 86.4253 18.2055C86.3959 18.1668 86.3565 18.1295 86.3159 18.1023C86.1861 18.0146 86.0194 18.0243 85.6858 18.0436C84.8295 18.0931 84.004 18.2197 83.2096 18.4235C82.1866 18.6657 81.2848 19.0695 80.5043 19.6348C79.7504 20.2001 79.1449 20.9538 78.6873 21.896C78.2296 22.8112 78.0006 23.9283 78.0006 25.2473Z" fill="#313131"/>
<path d="M113.531 38.8282C113.424 38.9971 113.371 39.0818 113.293 39.1358C113.267 39.1534 113.24 39.1687 113.211 39.1807C113.124 39.2181 113.024 39.2181 112.824 39.2181H109.396C109.048 39.2181 108.874 39.2181 108.752 39.1295C108.713 39.1008 108.678 39.0662 108.65 39.0268C108.561 38.9049 108.561 38.731 108.561 38.3831V20.5103C108.561 20.1624 108.561 19.9884 108.65 19.8664C108.678 19.8271 108.713 19.7924 108.752 19.7638C108.874 19.6752 109.048 19.6752 109.396 19.6752H112.208C112.556 19.6752 112.73 19.6752 112.852 19.7638C112.891 19.7924 112.926 19.8271 112.954 19.8664C113.043 19.9884 113.043 20.1624 113.043 20.5103V31.6643C113.043 32.1838 113.043 32.4436 113.156 32.5111C113.19 32.5315 113.23 32.5429 113.27 32.5438C113.402 32.5463 113.539 32.3261 113.814 31.8857L121.196 20.0679C121.302 19.8977 121.356 19.8126 121.434 19.7582C121.46 19.7403 121.487 19.7251 121.516 19.7127C121.603 19.6752 121.704 19.6752 121.904 19.6752H125.492C125.84 19.6752 126.014 19.6752 126.136 19.7638C126.175 19.7924 126.21 19.8271 126.239 19.8664C126.327 19.9884 126.327 20.1624 126.327 20.5103V38.3831C126.327 38.731 126.327 38.9049 126.239 39.0268C126.21 39.0662 126.175 39.1008 126.136 39.1295C126.014 39.2181 125.84 39.2181 125.492 39.2181H122.64C122.292 39.2181 122.118 39.2181 121.996 39.1295C121.957 39.1008 121.922 39.0662 121.893 39.0268C121.805 38.9049 121.805 38.731 121.805 38.3831V27.138C121.805 26.6218 121.805 26.3635 121.692 26.2961C121.658 26.2754 121.618 26.2641 121.578 26.2631C121.447 26.2601 121.309 26.4785 121.034 26.9155L113.531 38.8282Z" fill="#313131"/>
<path d="M132.007 39.2181C131.659 39.2181 131.486 39.2181 131.364 39.1295C131.324 39.1008 131.29 39.0662 131.261 39.0268C131.172 38.9049 131.172 38.731 131.172 38.3831V20.5103C131.172 20.1624 131.172 19.9884 131.261 19.8664C131.29 19.8271 131.324 19.7924 131.364 19.7638C131.486 19.6752 131.659 19.6752 132.007 19.6752H134.981C135.329 19.6752 135.502 19.6752 135.624 19.7638C135.664 19.7924 135.699 19.8271 135.727 19.8664C135.816 19.9884 135.816 20.1624 135.816 20.5103V26.31C135.816 26.6579 135.816 26.8318 135.904 26.954C135.933 26.9931 135.968 27.0279 136.007 27.0564C136.129 27.1452 136.303 27.1452 136.651 27.1452H143.46C143.808 27.1452 143.982 27.1452 144.104 27.0564C144.143 27.0279 144.178 26.9931 144.207 26.954C144.295 26.8318 144.295 26.6579 144.295 26.31V20.5103C144.295 20.1624 144.295 19.9884 144.384 19.8664C144.412 19.8271 144.447 19.7924 144.486 19.7638C144.608 19.6752 144.782 19.6752 145.13 19.6752H148.103C148.451 19.6752 148.625 19.6752 148.747 19.7638C148.787 19.7924 148.821 19.8271 148.85 19.8664C148.939 19.9884 148.939 20.1624 148.939 20.5103V38.3831C148.939 38.731 148.939 38.9049 148.85 39.0268C148.821 39.0662 148.787 39.1008 148.747 39.1295C148.625 39.2181 148.451 39.2181 148.103 39.2181H145.13C144.782 39.2181 144.608 39.2181 144.486 39.1295C144.447 39.1008 144.412 39.0662 144.384 39.0268C144.295 38.9049 144.295 38.731 144.295 38.3831V32.0987C144.295 31.7507 144.295 31.5769 144.207 31.4549C144.178 31.4155 144.143 31.3808 144.104 31.3522C143.982 31.2637 143.808 31.2637 143.46 31.2637H136.651C136.303 31.2637 136.129 31.2637 136.007 31.3522C135.968 31.3808 135.933 31.4155 135.904 31.4549C135.816 31.5769 135.816 31.7507 135.816 32.0987V38.3831C135.816 38.731 135.816 38.9049 135.727 39.0268C135.699 39.0662 135.664 39.1008 135.624 39.1295C135.502 39.2181 135.329 39.2181 134.981 39.2181H132.007Z" fill="#313131"/>
<path d="M152.762 23.7938C152.414 23.7938 152.24 23.7938 152.118 23.705C152.079 23.6765 152.044 23.642 152.015 23.6026C151.927 23.4806 151.927 23.3065 151.927 22.9586V20.5103C151.927 20.1624 151.927 19.9884 152.015 19.8664C152.044 19.8271 152.079 19.7924 152.118 19.7638C152.24 19.6752 152.414 19.6752 152.762 19.6752H168.898C169.246 19.6752 169.42 19.6752 169.542 19.7638C169.582 19.7924 169.616 19.8271 169.645 19.8664C169.733 19.9884 169.733 20.1624 169.733 20.5103V22.9586C169.733 23.3065 169.733 23.4806 169.645 23.6026C169.616 23.642 169.582 23.6765 169.542 23.705C169.42 23.7938 169.246 23.7938 168.898 23.7938H163.987C163.639 23.7938 163.465 23.7938 163.343 23.8824C163.304 23.9109 163.269 23.9457 163.24 23.9851C163.152 24.107 163.152 24.2809 163.152 24.6288V38.3831C163.152 38.731 163.152 38.9049 163.063 39.0268C163.035 39.0662 163 39.1008 162.961 39.1295C162.839 39.2181 162.665 39.2181 162.317 39.2181H159.344C158.996 39.2181 158.821 39.2181 158.7 39.1295C158.66 39.1008 158.626 39.0662 158.597 39.0268C158.508 38.9049 158.508 38.731 158.508 38.3831V24.6288C158.508 24.2809 158.508 24.107 158.42 23.9851C158.391 23.9457 158.356 23.9109 158.317 23.8824C158.195 23.7938 158.021 23.7938 157.673 23.7938H152.762Z" fill="#313131"/>
<path d="M184.723 39.2181C184.375 39.2181 184.201 39.2181 184.08 39.1295C184.04 39.1008 184.005 39.0662 183.977 39.0268C183.888 38.9049 183.888 38.731 183.888 38.3831V38.2609C183.888 37.8024 183.888 37.5731 183.798 37.5035C183.767 37.4797 183.74 37.4676 183.702 37.46C183.59 37.4372 183.404 37.5991 183.031 37.9229C182.567 38.3265 182.032 38.6643 181.425 38.9355C180.429 39.3931 179.285 39.6219 177.993 39.6219C176.028 39.6219 174.413 39.1105 173.148 38.0875C171.882 37.0647 171.25 35.6379 171.25 33.8074C171.25 31.7885 171.909 30.3216 173.228 29.4064C174.574 28.464 176.378 27.9392 178.639 27.8316C179.554 27.7776 180.429 27.7642 181.264 27.7911C181.794 27.7911 182.314 27.7966 182.822 27.8075C183.184 27.8152 183.365 27.8191 183.49 27.7308C183.531 27.702 183.566 27.668 183.595 27.6279C183.686 27.505 183.686 27.3256 183.686 26.9672V26.2972C183.686 25.1666 183.35 24.3455 182.677 23.8342C182.004 23.3228 181.129 23.0669 180.052 23.0669C178.976 23.0669 178.128 23.3362 177.508 23.8745C177.056 24.2683 176.696 24.763 176.431 25.3584C176.29 25.6741 176.219 25.832 176.118 25.905C176.081 25.9314 176.052 25.9469 176.01 25.9627C175.893 26.0068 175.743 25.9815 175.444 25.9307L172.744 25.4719C172.389 25.4117 172.211 25.3815 172.103 25.2575C172.07 25.2202 172.039 25.169 172.02 25.1228C171.96 24.9694 172.009 24.8115 172.109 24.4955C172.546 23.1162 173.349 21.9536 174.52 21.0077C175.92 19.8502 177.791 19.2714 180.133 19.2714C182.448 19.2714 184.373 19.8098 185.907 20.8865C187.441 21.9364 188.209 23.7532 188.209 26.3376V38.3831C188.209 38.731 188.209 38.9049 188.12 39.0268C188.091 39.0662 188.057 39.1008 188.017 39.1295C187.895 39.2181 187.721 39.2181 187.373 39.2181H184.723ZM183.686 31.7417C183.686 31.4058 183.686 31.238 183.598 31.1165C183.571 31.078 183.535 31.0418 183.497 31.0138C183.376 30.9252 183.212 30.9238 182.885 30.9213C182.463 30.9181 182.017 30.9243 181.546 30.9405C180.766 30.9405 179.998 30.954 179.245 30.9811C178.195 31.008 177.36 31.2368 176.741 31.6675C176.149 32.0982 175.853 32.7172 175.853 33.5248C175.853 34.3323 176.136 34.9649 176.701 35.4225C177.266 35.8532 178.02 36.0686 178.962 36.0686C180.335 36.0686 181.466 35.7457 182.354 35.0996C183.242 34.4266 183.686 33.5517 183.686 32.4749V31.7417Z" fill="#313131"/>
<path d="M211.429 29.7696C211.429 32.7847 210.594 35.1803 208.925 36.9569C207.257 38.7336 204.995 39.6219 202.142 39.6219C198.858 39.6219 196.381 38.6798 194.712 36.7953C193.044 34.8842 192.209 32.0173 192.209 28.1949V25.0051C192.209 22.6631 192.465 20.6981 192.976 19.1099C193.515 17.4948 194.268 16.1892 195.237 15.1932C196.206 14.1703 197.391 13.4166 198.791 12.9321C200.19 12.4206 201.752 12.0707 203.474 11.8823C204.767 11.7477 205.964 11.6131 207.068 11.4785C207.843 11.3839 208.573 11.296 209.255 11.2147C209.605 11.1731 209.78 11.1522 209.912 11.2275C209.955 11.2517 209.994 11.2827 210.027 11.3191C210.129 11.4319 210.147 11.6073 210.183 11.9581L210.456 14.6116C210.491 14.9551 210.509 15.1269 210.434 15.2568C210.41 15.2987 210.379 15.3367 210.343 15.3692C210.232 15.4698 210.061 15.4888 209.718 15.527C208.965 15.6105 208.15 15.7012 207.27 15.7989C206.086 15.9335 204.915 16.0681 203.757 16.2027C201.442 16.4449 199.665 17.1179 198.427 18.2216C197.429 19.0896 196.833 20.4123 196.64 22.1898C196.588 22.6638 196.562 22.9009 196.655 22.9805C196.686 23.0062 196.717 23.0218 196.756 23.0304C196.875 23.0572 197.068 22.8767 197.453 22.5159C197.997 22.0058 198.645 21.5839 199.396 21.2499C200.635 20.7116 201.913 20.4424 203.232 20.4424C205.709 20.4424 207.687 21.2365 209.168 22.8247C210.675 24.3859 211.429 26.701 211.429 29.7696ZM202.021 35.8667C203.636 35.8667 204.847 35.3284 205.655 34.2516C206.489 33.1479 206.906 31.681 206.906 29.8505C206.906 27.993 206.489 26.5798 205.655 25.6108C204.82 24.6416 203.636 24.1571 202.102 24.1571C200.648 24.1571 199.41 24.5743 198.387 25.4089C197.364 26.2434 196.853 27.32 196.853 28.639V29.4467C196.853 31.627 197.31 33.2423 198.225 34.2919C199.167 35.3418 200.433 35.8667 202.021 35.8667Z" fill="#313131"/>
<path d="M216.691 31.4253C216.718 30.6714 216.745 29.7831 216.772 28.7603C216.799 27.7104 216.813 26.647 216.813 25.5705C216.84 24.4668 216.853 23.4034 216.853 22.3805C216.871 21.6937 216.882 21.0703 216.888 20.5103C216.892 20.1597 216.894 19.9845 216.983 19.864C217.012 19.8248 217.046 19.7911 217.086 19.7626C217.207 19.6752 217.381 19.6752 217.728 19.6752H231.159C231.507 19.6752 231.681 19.6752 231.803 19.7638C231.844 19.7924 231.879 19.8271 231.906 19.8664C231.994 19.9884 231.994 20.1624 231.994 20.5103V38.3831C231.994 38.731 231.994 38.9049 231.906 39.0268C231.879 39.0662 231.844 39.1008 231.803 39.1295C231.681 39.2181 231.507 39.2181 231.159 39.2181H228.186C227.838 39.2181 227.664 39.2181 227.542 39.1295C227.503 39.1008 227.468 39.0662 227.44 39.0268C227.351 38.9049 227.351 38.731 227.351 38.3831V24.6288C227.351 24.2809 227.351 24.107 227.263 23.9851C227.234 23.9457 227.199 23.9109 227.16 23.8824C227.038 23.7938 226.864 23.7938 226.516 23.7938H221.968C221.621 23.7938 221.447 23.7938 221.326 23.8807C221.286 23.909 221.252 23.9424 221.223 23.9816C221.134 24.1014 221.132 24.2774 221.127 24.6288C221.12 25.0579 221.109 25.5063 221.093 25.9741C221.093 26.7548 221.079 27.5219 221.052 28.2758C221.025 29.0294 220.998 29.7562 220.971 30.456C220.971 31.1559 220.971 31.7616 220.971 32.273C220.891 34.8304 220.406 36.634 219.518 37.6837C218.63 38.7067 217.095 39.2181 214.915 39.2181H213.65C213.302 39.2181 213.128 39.2181 213.006 39.1295C212.967 39.1008 212.932 39.0662 212.904 39.0268C212.815 38.9049 212.815 38.731 212.815 38.3831V35.9346C212.815 35.5866 212.815 35.4128 212.904 35.2908C212.932 35.2514 212.967 35.2169 213.006 35.1881C213.128 35.0996 213.302 35.0996 213.65 35.0996H213.986C214.955 35.0996 215.642 34.8304 216.045 34.2919C216.449 33.7537 216.665 32.7981 216.691 31.4253Z" fill="#313131"/>
<path d="M245.296 39.6219C242.417 39.6219 240.087 38.7201 238.311 36.9166C236.536 35.113 235.646 32.6096 235.646 29.4064C235.646 26.2029 236.522 23.7129 238.272 21.9364C240.048 20.1597 242.389 19.2714 245.296 19.2714C248.231 19.2714 250.558 20.1597 252.283 21.9364C254.031 23.7129 254.907 26.2029 254.907 29.4064C254.907 32.5827 254.031 35.0861 252.283 36.9166C250.558 38.7201 248.231 39.6219 245.296 39.6219ZM245.296 35.7053C246.912 35.7053 248.15 35.1668 249.012 34.09C249.872 32.9863 250.303 31.4253 250.303 29.4064C250.303 27.3875 249.872 25.8531 249.012 24.8032C248.15 23.7264 246.912 23.1881 245.296 23.1881C243.736 23.1881 242.498 23.7264 241.582 24.8032C240.695 25.8531 240.249 27.3875 240.249 29.4064C240.249 31.4253 240.708 32.9863 241.622 34.09C242.537 35.1668 243.761 35.7053 245.296 35.7053Z" fill="#313131"/>
</g>
<defs>
<clipPath id="clip0_91_4">
<rect width="255" height="53.55" fill="white"/>
</clipPath>
</defs>
</svg>
