<svg width="255" height="87" viewBox="0 0 255 87" fill="none" xmlns="http://www.w3.org/2000/svg">
<g clip-path="url(#clip0_91_81)">
<path d="M0 43.0862C0 27.9549 0 20.3601 2.85006 14.6347C5.3866 9.58121 9.37668 5.49166 14.3358 2.9211C19.9503 0 27.3035 0 41.9813 0H45.829C60.5352 0 67.8597 0 73.4745 2.9211C78.4049 5.49166 82.4236 9.58121 84.9317 14.6347C87.7817 20.3601 87.7817 27.9549 87.7817 43.0862C87.7817 58.2176 87.7817 65.8123 84.9317 71.5377C82.4236 76.5913 78.4049 80.6808 73.4745 83.2513C67.8597 86.1724 60.5066 86.1724 45.829 86.1724H41.9813C27.275 86.1724 19.9503 86.1724 14.3358 83.2513C9.40517 80.6808 5.3866 76.5913 2.87856 71.5377C0 65.8123 0 58.2176 0 43.0862Z" fill="#313131"/>
<path d="M34.5724 33.6505C34.5724 33.1247 34.9715 32.7156 35.4275 32.7156H39.4746C39.9591 32.7156 40.3296 33.1247 40.3296 33.6505V52.5207C40.3296 53.0465 39.9306 53.4554 39.4746 53.4554H35.4275C34.943 53.4554 34.5724 53.0465 34.5724 52.5207V46.3281C34.5724 45.8022 34.1736 45.3932 33.7176 45.3932H25.1388C24.6543 45.3932 24.2838 45.8022 24.2838 46.3281V52.5207C24.2838 53.0465 23.8848 53.4554 23.4288 53.4554H19.3532C18.8687 53.4554 18.4983 53.0465 18.4983 52.5207V33.6505C18.4983 33.1247 18.8971 32.7156 19.3532 32.7156H23.4003C23.8848 32.7156 24.2553 33.1247 24.2553 33.6505V39.1422C24.2553 39.6678 24.6543 40.0769 25.1104 40.0769H33.6891C34.1736 40.0769 34.5439 39.6678 34.5439 39.1422V33.6505H34.5724Z" fill="#585858"/>
<path d="M69.5595 43.0869C69.5595 44.4015 69.3314 45.5991 68.9039 46.7383C68.4479 47.8484 67.7925 48.8123 66.8804 49.6302C65.9684 50.4481 64.8285 51.1199 63.432 51.6166C62.2634 52.0254 60.9238 52.2592 59.4133 52.3468C58.9573 52.3759 58.5583 52.785 58.5583 53.3108V53.4568C58.5583 53.9826 58.1593 54.3915 57.7033 54.3915H53.6561C53.1716 54.3915 52.8011 53.9826 52.8011 53.4568V53.3108C52.8011 52.785 52.4307 52.3759 51.9462 52.3468C50.4071 52.2592 49.0675 52.0254 47.8991 51.6166C46.5311 51.1199 45.391 50.4481 44.479 49.6302C43.5669 48.8123 42.883 47.819 42.4555 46.7383C42.028 45.5991 41.8 44.4015 41.8 43.0869C41.8 41.7723 42.028 40.5747 42.4555 39.4355C42.9115 38.2963 43.5669 37.3323 44.479 36.5144C45.391 35.6965 46.5311 35.0247 47.8991 34.5572C49.0675 34.1484 50.4356 33.8855 51.9462 33.8271C52.4307 33.7979 52.8011 33.3888 52.8011 32.863V32.717C52.8011 32.1912 53.2001 31.7823 53.6561 31.7823H57.7033C58.1878 31.7823 58.5583 32.1912 58.5583 32.717V32.863C58.5583 33.3888 58.9288 33.7979 59.4133 33.8271C60.9238 33.9146 62.2634 34.1484 63.432 34.5572C64.8285 35.0247 65.9684 35.6965 66.8804 36.5144C67.7925 37.3323 68.4764 38.3254 68.9039 39.4355C69.3314 40.5747 69.5595 41.7723 69.5595 43.0869ZM47.4146 43.0869C47.4146 43.7003 47.5286 44.2845 47.728 44.8395C47.9561 45.3654 48.2982 45.8328 48.7542 46.2417C49.2102 46.6214 49.8086 46.9135 50.4926 47.1472C51.2052 47.3517 52.0317 47.4685 53.0007 47.4685C53.0292 47.4685 53.0577 47.4393 53.0577 47.4101V38.7637C53.0577 38.7345 53.0292 38.7053 53.0007 38.7053C52.0317 38.7053 51.2052 38.8221 50.4926 39.0558C49.8086 39.2603 49.2102 39.5816 48.7542 39.9613C48.2982 40.341 47.9561 40.7792 47.728 41.3343C47.5286 41.8601 47.4146 42.4443 47.4146 43.0869ZM58.2447 47.4685C59.2137 47.4685 60.0403 47.3517 60.7529 47.1472C61.4653 46.9135 62.0354 46.5922 62.4913 46.2417C62.9473 45.8328 63.2893 45.3946 63.5174 44.8395C63.7453 44.2845 63.8593 43.7003 63.8593 43.0869C63.8593 42.4443 63.7453 41.8601 63.5174 41.3343C63.2893 40.8084 62.9759 40.341 62.4913 39.9613C62.0354 39.5524 61.4653 39.2603 60.7529 39.0558C60.0403 38.8221 59.2137 38.7053 58.2447 38.7053C58.2162 38.7053 58.1878 38.7345 58.1878 38.7637V47.4101C58.1878 47.4393 58.2162 47.4685 58.2447 47.4685Z" fill="#585858"/>
<path d="M125.602 17.6437H129.877V37.2151H125.602V29.1528H118.192V37.1859H113.917V17.6145H118.192V25.2095H125.602V17.6437Z" fill="#313131"/>
<path d="M145.213 31.2553H136.007C136.378 33.2416 137.632 34.118 139.969 34.118C141.508 34.118 143.047 33.7383 144.415 33.0079V36.4548C142.961 37.1852 141.365 37.5649 139.741 37.5357C135.01 37.5357 132.103 34.7022 132.103 30.0868C132.103 25.5591 134.867 22.4921 138.886 22.4921C142.705 22.4921 145.213 25.3839 145.213 29.8239V31.2553ZM136.007 28.4802H141.565C141.394 26.6691 140.539 25.7344 138.914 25.7344C137.318 25.7344 136.321 26.6691 136.007 28.4802Z" fill="#313131"/>
<path d="M146.926 30C146.926 25.5308 149.89 22.4636 154.193 22.4636C155.504 22.4344 156.815 22.7849 157.955 23.4568V27.4879C156.986 26.6408 155.761 26.1734 154.478 26.1734C152.198 26.1734 150.944 27.5463 150.944 30C150.944 32.4538 152.227 33.7975 154.478 33.7975C155.761 33.7975 156.986 33.3301 157.955 32.483V36.5433C156.815 37.2152 155.504 37.5657 154.193 37.5365C149.861 37.5365 146.926 34.4985 146.926 30Z" fill="#313131"/>
<path d="M174.535 37.2159H169.576L164.901 30.8772V37.2159H160.883V22.815H164.901V28.6571L169.576 22.7856H174.421L168.777 29.5918L174.535 37.2159Z" fill="#313131"/>
<path d="M185.684 22.8424H189.759L182.606 37.185H178.53L180.895 32.3359L175.196 22.8132H179.499L182.805 28.4508L185.684 22.8424Z" fill="#313131"/>
<path d="M198.59 22.8132H202.609V37.2142H198.59V32.3943C197.736 32.628 196.851 32.7448 195.94 32.7448C192.405 32.7448 190.439 30.8754 190.439 27.4285V22.8132H194.458V26.9611C194.458 28.4216 195.142 29.0642 196.652 29.0642C197.308 29.0642 197.964 28.9474 198.562 28.7429V22.8132H198.59Z" fill="#313131"/>
<path d="M214.267 22.8132H218.315V37.2142H214.297V31.6348H209.907V37.2142H205.861V22.8132H209.879V28.1295H214.239L214.267 22.8132Z" fill="#313131"/>
<path d="M228.601 27.224C231.681 27.224 233.703 29.1811 233.703 32.219C233.703 35.257 231.651 37.185 228.601 37.185H221.562V22.8132H225.496V27.2532H228.601V27.224ZM227.803 34.147C229.143 34.147 229.827 33.5044 229.827 32.219C229.827 30.9338 229.171 30.2912 227.803 30.2912H225.496V34.147H227.803ZM235.442 22.8132H239.461V37.2142H235.442V22.8132Z" fill="#313131"/>
<path d="M255 31.2553H245.795C246.165 33.2416 247.42 34.118 249.756 34.118C251.296 34.118 252.835 33.7383 254.203 33.0079V36.4548C252.749 37.1852 251.154 37.5649 249.529 37.5357C244.768 37.5357 241.861 34.7022 241.861 30.0868C241.861 25.5591 244.626 22.4921 248.644 22.4921C252.464 22.4921 254.972 25.3839 254.972 29.8239V31.2553H255ZM245.795 28.4802H251.353C251.154 26.6691 250.297 25.7344 248.702 25.7344C247.106 25.7344 246.08 26.6691 245.795 28.4802Z" fill="#313131"/>
<path d="M124.349 64.148V70.1655H120.331V64.148C115.657 64.0018 112.693 61.11 112.693 56.6408C112.693 52.1714 115.685 49.2212 120.331 49.1044V43.525H124.349V49.1044C129.023 49.2504 132.016 52.1714 132.016 56.6408C132.016 61.11 129.052 64.0018 124.349 64.148ZM120.473 60.6427V52.6389C117.908 52.6973 116.597 54.0702 116.597 56.67C116.597 59.2406 117.908 60.5843 120.473 60.6427ZM124.207 60.6427C126.772 60.5843 128.14 59.2114 128.14 56.6408C128.14 54.0702 126.8 52.6681 124.207 52.6097V60.6427Z" fill="#313131"/>
<path d="M138.399 58.0433L143.215 49.3969H147.263V63.7978H143.33V54.9469L138.399 63.7978H134.466V49.3969H138.399V58.0433Z" fill="#313131"/>
<path d="M158.915 49.4243H162.933V63.8253H158.915V58.2461H154.554V63.8253H150.535V49.4243H154.554V54.7408H158.915V49.4243Z" fill="#313131"/>
<path d="M177.309 54.7708V63.8263H173.662V62.0737C173.292 62.7455 172.75 63.2713 172.094 63.651C171.439 64.0309 170.698 64.206 169.957 64.1476C167.392 64.1476 165.568 62.4242 165.568 60.029C165.568 57.955 166.936 56.4359 169.444 55.9395L173.32 55.2091C173.263 53.661 172.123 52.7847 170.27 52.7847C168.788 52.8139 167.335 53.2811 166.109 54.1866V50.4184C167.534 49.5129 169.216 49.0749 170.897 49.1332C174.888 49.104 177.309 51.2072 177.309 54.7708ZM173.32 60.029V57.9256L170.869 58.3931C169.9 58.5684 169.444 59.0357 169.444 59.8244C169.444 60.6715 170.043 61.139 171.068 61.139C171.496 61.1682 171.924 61.0512 172.322 60.8761C172.721 60.6715 173.063 60.3794 173.32 60.029Z" fill="#313131"/>
<path d="M188.734 49.4243H192.752V63.8253H188.734V58.2461H184.374V63.8253H180.355V49.4243H184.374V54.7408H188.734V49.4243Z" fill="#313131"/>
<path d="M195.172 56.6404C195.172 52.1711 198.137 49.104 202.44 49.104C203.752 49.0747 205.062 49.4253 206.202 50.0971V54.1282C205.233 53.2811 204.007 52.8138 202.725 52.8138C200.446 52.8138 199.192 54.1866 199.192 56.6404C199.192 59.094 200.474 60.4378 202.725 60.4378C204.007 60.4378 205.233 59.9704 206.202 59.1232V63.1545C205.062 63.8263 203.752 64.1768 202.44 64.1476C198.109 64.1476 195.172 61.1096 195.172 56.6404Z" fill="#313131"/>
<path d="M216.154 53.8351C219.231 53.8351 221.256 55.7923 221.256 58.8303C221.256 61.8681 219.231 63.8253 216.154 63.8253H209.114V49.4243H213.048V53.8645H216.154V53.8351ZM215.355 60.7582C216.695 60.7582 217.38 60.1155 217.38 58.8303C217.38 57.5449 216.724 56.9023 215.355 56.9023H213.048V60.7582H215.355ZM222.995 49.4243H227.013V63.8545H222.995V49.4243Z" fill="#313131"/>
</g>
<defs>
<clipPath id="clip0_91_81">
<rect width="255" height="86.1724" fill="white"/>
</clipPath>
</defs>
</svg>
