<svg width="255" height="50" viewBox="0 0 255 50" fill="none" xmlns="http://www.w3.org/2000/svg">
<path d="M75.5125 24.3957L76.0934 25.5574L76.3838 24.1053L83.6446 12.1975H88.582V36.8843H83.0638V24.1053L83.3542 21.7818L82.4829 24.1053L77.836 31.9498H74.0604L69.123 24.1053L68.2517 21.7818L68.5421 24.1053V37.1747H63.0239V12.488H67.9613L75.5125 24.3957Z" fill="#313131"/>
<path d="M108.33 17.4256H102.231L100.489 18.8778V30.4951L102.231 31.9473H108.33L110.073 30.4951V18.8778L108.33 17.4256ZM110.363 12.4883L115.301 16.8448V32.8185L110.363 37.175H99.9078L94.9705 32.8185V16.8448L99.9078 12.4883H110.363Z" fill="#313131"/>
<path d="M137.084 28.7522L140.86 32.5278L136.213 37.1747H125.757L121.401 32.8182V16.8445L125.757 12.488H135.922L140.279 16.8445V21.4914H134.761V18.8775L133.599 17.4253H128.081L126.629 18.8775V30.7852L128.081 32.2374H133.599L137.084 28.7522Z" fill="#313131"/>
<path d="M148.991 37.1759H146.668V12.7796H163.513V37.1759H161.189V15.103H148.701V37.1759H148.991Z" fill="#313131"/>
<path d="M173.968 15.1028V25.5583H184.134L186.457 23.2349V17.4262L184.134 15.1028H173.968ZM173.968 37.1756H171.645V12.7793H185.005L188.49 16.2645V24.1062L185.005 27.5914H173.968V37.1756Z" fill="#313131"/>
<path d="M195.46 12.7784H210.562V15.1019H197.783V23.234H209.11V25.5574H197.783V34.8542H210.562V37.1747H195.46V12.7784Z" fill="#313131"/>
<path d="M231.184 32.238L232.927 33.9806L229.732 37.1753H219.567L216.082 33.6901V16.2642L219.567 12.779H229.151L232.927 16.2642V20.3302H230.603V17.4259L228.28 15.1025H220.438L218.115 17.4259V32.8188L220.438 35.1423H228.57L231.184 32.238Z" fill="#313131"/>
<path d="M253.257 32.238L255 33.9806L251.805 37.1753H241.64L238.155 33.6901V16.2642L241.64 12.779H251.224L254.709 16.2642V20.3302H252.386V17.4259L250.353 15.1025H242.511L240.188 17.4259V32.8188L242.511 35.1423H250.643L253.257 32.238Z" fill="#313131"/>
<mask id="mask0_91_107" style="mask-type:luminance" maskUnits="userSpaceOnUse" x="0" y="0" width="50" height="50">
<path d="M0 -1.85966e-05H49.3735V49.3735H0V-1.85966e-05Z" fill="white"/>
</mask>
<g mask="url(#mask0_91_107)">
<g opacity="0.199997">
<path d="M24.6867 -0.000155926C38.3196 -0.000155926 49.3735 11.0537 49.3735 24.6866C49.3735 38.3224 38.3196 49.3733 24.6867 49.3733C11.0539 49.3733 0 38.3224 0 24.6866C0 11.0537 11.0539 -0.000155926 24.6867 -0.000155926Z" fill="#313131"/>
</g>
</g>
<mask id="mask1_91_107" style="mask-type:luminance" maskUnits="userSpaceOnUse" x="6" y="6" width="38" height="38">
<path d="M6.09912 6.09912H43.2744V43.2744H6.09912V6.09912Z" fill="white"/>
</mask>
<g mask="url(#mask1_91_107)">
<g opacity="0.199997">
<path d="M24.6868 6.09911C34.9536 6.09911 43.2745 14.42 43.2745 24.6868C43.2745 34.9536 34.9536 43.2744 24.6868 43.2744C14.42 43.2744 6.09912 34.9536 6.09912 24.6868C6.09912 14.42 14.42 6.09911 24.6868 6.09911Z" fill="#313131"/>
</g>
</g>
<path d="M24.6865 11.9077C31.744 11.9077 37.4655 17.6292 37.4655 24.6867C37.4655 31.7442 31.744 37.4657 24.6865 37.4657C17.629 37.4657 11.9075 31.7442 11.9075 24.6867C11.9075 17.6292 17.629 11.9077 24.6865 11.9077Z" fill="#313131"/>
</svg>
