<svg width="255" height="48" viewBox="0 0 255 48" fill="none" xmlns="http://www.w3.org/2000/svg">
<g clip-path="url(#clip0_91_16)">
<path d="M65.8381 39.9112H68.2702C68.9606 39.8673 69.6491 40.0231 70.2534 40.3599C70.7361 40.745 71.1258 41.2339 71.3937 41.7903C71.6615 42.3466 71.8006 42.9562 71.8006 43.5737C71.8006 44.1911 71.6615 44.8007 71.3937 45.3571C71.1258 45.9134 70.7361 46.4023 70.2534 46.7874C69.6491 47.1242 68.9606 47.28 68.2702 47.2362H65.8381V39.9112ZM66.8515 46.3531H68.2991C68.6529 46.3876 69.0097 46.3296 69.3344 46.185C69.6592 46.0404 69.9409 45.814 70.1521 45.528C70.5212 44.943 70.7171 44.2654 70.7171 43.5737C70.7171 42.8819 70.5212 42.2044 70.1521 41.6194C69.9426 41.3307 69.6616 41.1015 69.3367 40.9543C69.0119 40.8071 68.6543 40.7469 68.2991 40.7797H66.8515V46.3531Z" fill="#313131"/>
<path d="M78.8669 47.2362V39.9112H83.4559V40.7797H79.8803V43.067H83.2822V43.9356H79.8803V46.3531H83.5428V47.2362H78.8669Z" fill="#313131"/>
<path d="M97.0636 39.9112V47.2362H95.8186L92.1127 41.0114V47.2362H91.2007V39.9112H92.6483L96.224 45.9623V39.9112H97.0636Z" fill="#313131"/>
<path d="M106.546 40.7797H104.114V39.9112H110.034V40.7797H107.573V47.2362H106.546V40.7797Z" fill="#313131"/>
<path d="M115.376 47.2362L118.459 39.9112H119.545L122.44 47.2362H121.34L120.544 45.3253H117.214L116.418 47.2362H115.376ZM117.562 44.4567H120.283L118.952 40.91L117.562 44.4567Z" fill="#313131"/>
<path d="M129.433 47.2362V39.9112H130.446V46.3531H133.848V47.2362H129.433Z" fill="#313131"/>
<path d="M150.351 45.0502C150.351 46.0781 150.959 46.4979 151.943 46.4979C152.928 46.4979 153.796 46.2518 153.796 45.224C153.796 44.5146 153.203 44.2396 152.595 44.1093C151.393 43.8487 149.381 43.5737 149.381 41.9234C149.381 40.2731 150.828 39.7374 152.276 39.7374C153.724 39.7374 154.752 40.302 154.752 41.7207H153.68C153.68 40.8955 152.957 40.6205 152.233 40.6205C151.509 40.6205 150.539 40.8811 150.539 41.7496C150.539 42.6182 151.118 42.6327 151.755 42.8354C153.116 43.2697 154.94 43.2697 154.94 45.1226C154.94 46.9756 153.492 47.3664 152.045 47.3664C150.597 47.3664 149.395 46.715 149.439 45.0792L150.351 45.0502Z" fill="#313131"/>
<path d="M165.305 39.7519C167.578 39.7519 168.649 41.4312 168.649 43.5737C168.649 45.7162 167.578 47.3809 165.305 47.3809C163.032 47.3809 162.019 45.7162 162.019 43.6026C162.019 41.4891 163.018 39.7519 165.305 39.7519ZM165.305 46.5124C167.158 46.5124 167.578 45.0647 167.578 43.6171C167.578 42.1695 167.158 40.7218 165.305 40.7218C163.452 40.7218 163.018 42.0971 163.018 43.6171C163.018 45.1371 163.466 46.4979 165.305 46.4979V46.5124Z" fill="#313131"/>
<path d="M176.075 47.2362V39.9112H177.089V46.3531H180.49V47.2362H176.075Z" fill="#313131"/>
<path d="M193.548 44.3264C193.548 45.1097 193.237 45.8608 192.683 46.4146C192.129 46.9685 191.378 47.2796 190.595 47.2796C189.812 47.2796 189.061 46.9685 188.507 46.4146C187.953 45.8608 187.642 45.1097 187.642 44.3264V39.9835H188.655V44.6449C188.655 45.1594 188.86 45.6528 189.223 46.0166C189.587 46.3804 190.081 46.5847 190.595 46.5847C191.109 46.5847 191.603 46.3804 191.967 46.0166C192.33 45.6528 192.535 45.1594 192.535 44.6449V39.9112H193.548V44.3264Z" fill="#313131"/>
<path d="M203.016 40.7797H200.569V39.9112H206.49V40.7797H204V47.2362H202.987L203.016 40.7797Z" fill="#313131"/>
<path d="M213.41 47.2362V39.9112H214.423V47.2362H213.41Z" fill="#313131"/>
<path d="M225.15 39.7519C227.423 39.7519 228.494 41.4312 228.494 43.5737C228.494 45.7162 227.423 47.3809 225.15 47.3809C222.877 47.3809 221.806 45.7162 221.806 43.6026C221.806 41.4891 222.819 39.7519 225.15 39.7519ZM225.15 46.5124C227.003 46.5124 227.423 45.0647 227.423 43.6171C227.423 42.1695 227.003 40.7218 225.15 40.7218C223.297 40.7218 222.819 42.0102 222.819 43.6026C222.819 45.195 223.297 46.4979 225.15 46.4979V46.5124Z" fill="#313131"/>
<path d="M241.855 39.9112V47.2362H240.596L236.905 41.0114V47.2362H236.007V39.9112H237.455L241.016 45.9623V39.9112H241.855Z" fill="#313131"/>
<path d="M250.324 45.0502C250.324 46.0781 250.947 46.4979 251.916 46.4979C252.886 46.4979 253.769 46.2518 253.769 45.224C253.769 44.5146 253.176 44.2396 252.568 44.1093C251.366 43.8487 249.354 43.5737 249.354 41.9234C249.354 40.2731 250.802 39.7374 252.177 39.7374C253.552 39.7374 254.653 40.302 254.653 41.7207H253.581C253.581 40.8955 252.857 40.6205 252.134 40.6205C251.41 40.6205 250.44 40.8811 250.44 41.7496C250.44 42.6182 251.019 42.6327 251.67 42.8354C253.017 43.2697 254.841 43.2697 254.841 45.1226C254.841 46.9756 253.393 47.3664 251.873 47.3664C250.353 47.3664 249.224 46.715 249.267 45.0792L250.324 45.0502Z" fill="#313131"/>
<path d="M90.9545 25.0874C89.4745 26.5829 87.7515 27.8164 85.8589 28.7355C84.0509 29.5972 82.0711 30.0377 80.0684 30.0238C78.0434 30.0581 76.0361 29.6428 74.191 28.8078C70.8124 27.297 68.1723 24.5059 66.8515 21.0485C66.1936 19.3847 65.8548 17.6118 65.8526 15.8226C65.8225 13.8291 66.2276 11.853 67.0397 10.0321C68.5217 6.62093 71.289 3.93171 74.7411 2.54783C76.4291 1.84532 78.24 1.48607 80.0684 1.49106C81.9724 1.50057 83.8543 1.89962 85.5983 2.66364C87.4309 3.45538 89.0889 4.60169 90.4768 6.03661L86.6117 9.94522C85.7191 9.04341 84.6692 8.31241 83.5137 7.78825C82.4324 7.2937 81.2574 7.03699 80.0684 7.03548C78.9076 7.02642 77.7581 7.26323 76.6954 7.73034C75.6686 8.17953 74.7355 8.81795 73.9449 9.61226C73.1347 10.4215 72.4924 11.3829 72.0552 12.4413C71.6179 13.4997 71.3943 14.634 71.3971 15.7792C71.3919 16.9381 71.6234 18.0859 72.0774 19.1521C72.9605 21.2281 74.6166 22.8791 76.6954 23.7556C77.7591 24.2177 78.9086 24.4496 80.0684 24.436C81.3753 24.4801 82.6729 24.2017 83.8467 23.6253C85.053 23.003 86.1485 22.1862 87.0894 21.2078L90.9545 25.0874Z" fill="#313131"/>
<path d="M113.262 7.06444H105.561V29.7488H100.046V7.06444H92.3008V1.44763H113.262V7.06444Z" fill="#313131"/>
<path d="M129.664 30.0238C126.038 30.0318 122.54 28.6783 119.864 26.2311C118.5 24.9649 117.402 23.4392 116.636 21.7434C115.806 19.9017 115.391 17.9003 115.42 15.8805C115.418 14.0324 115.782 12.2022 116.491 10.4953C117.186 8.7951 118.198 7.24265 119.473 5.9208C120.755 4.58704 122.284 3.51522 123.975 2.76497C125.711 2.01123 127.58 1.61267 129.472 1.59278C131.364 1.57289 133.241 1.93208 134.992 2.64916C136.684 3.31038 138.233 4.29361 139.552 5.54442C140.892 6.83488 141.969 8.37383 142.722 10.0755C143.539 11.8953 143.949 13.8714 143.923 15.866C143.92 17.6935 143.561 19.5028 142.867 21.1933C142.195 22.8764 141.213 24.4183 139.971 25.7389C138.689 27.0726 137.16 28.1444 135.469 28.8947C133.638 29.6845 131.658 30.0697 129.664 30.0238ZM129.664 7.07891C127.952 7.09132 126.282 7.60347 124.857 8.55244C123.432 9.50141 122.316 10.8459 121.644 12.4207C121.191 13.4973 120.96 14.6544 120.964 15.8226C120.957 16.9832 121.193 18.1324 121.659 19.1956C122.113 20.2194 122.751 21.1516 123.541 21.9461C124.331 22.733 125.265 23.3619 126.291 23.799C127.356 24.2587 128.505 24.4905 129.664 24.4794C130.824 24.493 131.974 24.2612 133.037 23.799C135.116 22.9225 136.772 21.2715 137.655 19.1956C138.114 18.1252 138.351 16.9727 138.351 15.8081C138.351 14.6435 138.114 13.4911 137.655 12.4207C137.208 11.3877 136.575 10.4456 135.788 9.64121C134.995 8.82858 134.047 8.18315 133 7.74306C131.953 7.30296 130.829 7.07713 129.693 7.07891H129.664Z" fill="#313131"/>
<path d="M178.449 1.53448V29.7488H172.934V11.7548L162.887 21.7289L152.87 11.7548V29.7488H147.311V1.53448H150.438L162.945 13.9407L175.467 1.53448H178.449Z" fill="#313131"/>
<path d="M196.313 1.53448L208.893 29.7488H202.784L200.511 24.6387H189.857C189.509 25.4349 189.133 26.3034 188.713 27.2154C188.293 28.1274 187.931 28.9816 187.613 29.7488H181.547L193.968 1.53448H196.313ZM198.036 19.0942L195.141 12.6233L192.245 19.0942H198.036Z" fill="#313131"/>
<path d="M217.81 29.7488H212.266V1.44763H223.557C224.699 1.44149 225.829 1.67836 226.872 2.1425C227.895 2.59235 228.823 3.2308 229.608 4.02441C230.406 4.82117 231.049 5.75862 231.505 6.78939C231.975 7.85663 232.217 9.01055 232.214 10.1768C232.212 12.5095 231.298 14.7489 229.666 16.4161C228.875 17.2017 227.941 17.8304 226.916 18.2691C225.866 18.7269 224.732 18.9587 223.586 18.9495H217.796L217.81 29.7488ZM217.81 13.3761H222.515C223.637 13.4733 224.753 13.1307 225.627 12.4207C225.944 12.1396 226.198 11.794 226.37 11.4069C226.542 11.0199 226.63 10.6005 226.626 10.1768C226.628 9.75977 226.54 9.34723 226.367 8.96745C226.195 8.58767 225.943 8.24962 225.627 7.97644C224.74 7.29507 223.63 6.96981 222.515 7.06444H217.81V13.3761Z" fill="#313131"/>
<path d="M255.014 7.06444H247.342V29.7488H241.798V7.06444H234.053V1.44763H255.014V7.06444Z" fill="#313131"/>
<path d="M26.3034 47.2072H25.015L24.7979 45.9333C24.7979 45.8464 23.6543 39.7085 19.876 39.7085C16.0976 39.7085 14.7658 45.9043 14.7513 45.9623L14.5053 47.2072H13.2458C8.43968 47.2072 4.83508 43.675 4.06784 38.2319L0 9.19245C0.00382847 6.75564 0.973545 4.41972 2.69663 2.69663C4.41972 0.973545 6.75564 0.00382847 9.19245 0H30.3568C32.7923 0.00383541 35.1267 0.974015 36.8475 2.69752C38.5683 4.42102 39.5348 6.75697 39.5348 9.19245V9.40959L35.4814 38.2319C34.7142 43.6026 31.0227 47.2072 26.3034 47.2072Z" fill="#313131"/>
</g>
<defs>
<clipPath id="clip0_91_16">
<rect width="255" height="47.3809" fill="white"/>
</clipPath>
</defs>
</svg>
