<svg width="255" height="41" viewBox="0 0 255 41" fill="none" xmlns="http://www.w3.org/2000/svg">
<path fill-rule="evenodd" clip-rule="evenodd" d="M16.941 1.11902H30.5511V38.5922H16.941V26.3354H11.4241H11.3981H9.26421C4.44994 26.3354 0 23.8632 0 18.8147V17.0191V15.9001V14.677V14.2346V1.11902H13.6101V12.3089C13.6361 13.8183 14.4948 14.1566 16.0562 14.2346H16.941V1.11902ZM97.6906 38.5922H83.1437V26.4915H94.3596C95.895 26.4134 96.7538 26.0751 96.7798 24.5658V23.1085H83.1697V15.3797H94.4377C95.947 15.3016 96.7538 14.9633 96.7798 13.454V11.9967H85.2516H83.1437V1.14504H97.6906H101.516C106.33 1.14504 110.78 3.61723 110.78 8.66571V13.8443C110.78 16.2644 109.609 18.034 106.851 19.0489C109.609 20.0638 110.832 21.8334 110.78 24.2535V31.1236C110.78 36.1721 106.33 38.6443 101.516 38.6443H97.6906V38.5922ZM33.3616 1.11902H41.0384C44.8638 1.11902 47.5962 2.57631 49.3658 6.03738L51.1093 9.4464L56.8344 20.5843L62.5594 9.4464L64.303 6.03738C66.0986 2.55029 68.805 1.11902 72.6304 1.11902H80.3072V11.7625V38.5922H66.6971V27.5845L61.0501 38.5922H59.827H56.8344H53.8417H52.6186L46.9716 27.5845V38.5922H33.3616V11.7625V1.11902Z" fill="#313131"/>
<path d="M134.331 10.2531H133.108V6.3236C132.613 6.47974 132.145 6.60986 131.755 6.68793C131.364 6.766 130.948 6.81804 130.506 6.81804C130.115 6.81804 129.751 6.766 129.413 6.6619C129.074 6.55781 128.788 6.40167 128.528 6.19349C128.268 5.9853 128.085 5.69905 127.955 5.36075C127.825 5.02245 127.747 4.60608 127.747 4.16369V0.962853H128.97V3.53914C128.97 3.92948 128.996 4.24176 129.022 4.47597C129.048 4.71017 129.126 4.91836 129.283 5.12654C129.413 5.30871 129.569 5.43882 129.829 5.54291C130.063 5.647 130.375 5.69905 130.766 5.69905C131.13 5.69905 131.52 5.647 131.963 5.56894C132.405 5.49087 132.796 5.38677 133.108 5.25666V0.962853H134.331V10.2531ZM139.145 10.4092C138.026 10.4092 137.167 10.0969 136.569 9.4724C135.944 8.84784 135.658 7.96306 135.658 6.81804C135.658 5.67303 135.944 4.78824 136.543 4.11164C137.141 3.43504 137.922 3.09674 138.885 3.09674C139.327 3.09674 139.692 3.14879 140.03 3.27891C140.368 3.40902 140.655 3.59118 140.915 3.85141C141.175 4.11164 141.357 4.44994 141.487 4.84029C141.617 5.23064 141.696 5.69905 141.696 6.24554V6.87009H136.881C136.881 7.6768 137.089 8.30136 137.48 8.71773C137.896 9.1341 138.443 9.3683 139.171 9.3683C139.432 9.3683 139.692 9.34228 139.926 9.29023C140.16 9.23819 140.394 9.16012 140.603 9.05603C140.811 8.95193 140.993 8.87386 141.149 8.76977C141.305 8.6917 141.409 8.58761 141.513 8.50954H141.591V9.78467C141.461 9.83672 141.279 9.91479 141.071 9.99286C140.863 10.0709 140.681 10.149 140.524 10.175C140.29 10.2271 140.082 10.2791 139.9 10.3312C139.718 10.3572 139.484 10.3832 139.197 10.3832L139.145 10.4092ZM140.524 5.9853C140.524 5.67303 140.472 5.38677 140.42 5.17859C140.342 4.94438 140.264 4.76222 140.134 4.60608C140.004 4.42392 139.822 4.29381 139.614 4.21574C139.405 4.11164 139.145 4.08562 138.807 4.08562C138.495 4.08562 138.234 4.13767 138 4.21574C137.792 4.31983 137.584 4.44994 137.402 4.63211C137.22 4.81427 137.089 5.02245 137.011 5.23064C136.907 5.46484 136.855 5.69905 136.829 6.01133H140.524V5.9853ZM148.253 10.2531H147.082V4.26778H144.688C144.662 4.60608 144.662 4.94438 144.662 5.25666C144.662 5.56894 144.636 5.85519 144.636 6.11542C144.61 6.766 144.558 7.31248 144.506 7.75487C144.454 8.19727 144.376 8.56159 144.272 8.82182C144.168 9.10807 144.09 9.31626 143.96 9.4724C143.855 9.62853 143.725 9.75865 143.595 9.88876C143.465 10.0189 143.309 10.0969 143.127 10.175C142.971 10.2271 142.788 10.2791 142.58 10.2791C142.502 10.2791 142.424 10.2791 142.32 10.2791C142.216 10.2791 142.138 10.2791 142.112 10.2791V9.26421H142.164C142.19 9.26421 142.216 9.26421 142.268 9.26421C142.294 9.26421 142.346 9.26421 142.372 9.26421C142.476 9.26421 142.58 9.23819 142.658 9.21216C142.762 9.18614 142.841 9.1341 142.919 9.05603C143.127 8.84784 143.283 8.48352 143.361 7.98908C143.465 7.46862 143.517 6.766 143.569 5.85519C143.595 5.51689 143.595 5.10052 143.621 4.65813C143.647 4.18971 143.647 3.74732 143.673 3.33095H148.253V10.3051V10.2531ZM154.993 10.2531H153.822V7.49464H152.651L150.595 10.2531H149.216L151.454 7.39055C150.882 7.20839 150.465 6.97418 150.179 6.63588C149.919 6.29758 149.789 5.85519 149.789 5.28268C149.789 4.94438 149.867 4.63211 150.023 4.37187C150.179 4.11164 150.387 3.90346 150.647 3.7213C150.856 3.59118 151.116 3.48709 151.428 3.40902C151.74 3.33095 152.105 3.30493 152.495 3.30493H154.993V10.2791V10.2531ZM153.822 6.55781V4.21574H152.547C152.287 4.21574 152.053 4.24176 151.897 4.26778C151.74 4.29381 151.584 4.34585 151.454 4.44994C151.298 4.55404 151.194 4.65813 151.116 4.81427C151.038 4.97041 151.012 5.12654 151.012 5.30871C151.012 5.54291 151.038 5.72507 151.09 5.88121C151.142 6.01133 151.246 6.16747 151.376 6.27156C151.532 6.40167 151.688 6.47974 151.897 6.50577C152.105 6.55781 152.339 6.55781 152.599 6.55781H153.822ZM161.629 4.31983C161.889 4.60608 162.098 4.94438 162.254 5.36075C162.41 5.77712 162.488 6.27156 162.488 6.81804C162.488 7.36453 162.41 7.85897 162.228 8.30136C162.046 8.74375 161.837 9.1341 161.525 9.44637C161.213 9.75865 160.901 10.0189 160.536 10.175C160.172 10.3312 159.782 10.4092 159.339 10.4092C158.897 10.4092 158.506 10.3312 158.142 10.175C157.778 10.0189 157.465 9.78467 157.205 9.4724C156.893 9.08205 156.633 8.58761 156.477 7.98908C156.32 7.39055 156.242 6.6619 156.242 5.77712C156.242 5.46484 156.242 5.15257 156.294 4.81427C156.32 4.50199 156.373 4.11164 156.477 3.66925C156.555 3.27891 156.659 2.88856 156.815 2.55026C156.945 2.21196 157.153 1.92571 157.361 1.6915C157.648 1.37922 158.038 1.14501 158.506 0.962853C158.975 0.780692 159.625 0.650577 160.406 0.572507C160.692 0.546484 160.979 0.520461 161.291 0.494438C161.603 0.468415 161.863 0.442392 162.02 0.442392V1.50934C161.811 1.50934 161.577 1.53536 161.317 1.56138C161.083 1.58741 160.796 1.61343 160.484 1.63945C160.068 1.66548 159.625 1.74355 159.157 1.87366C158.689 1.97775 158.35 2.15991 158.116 2.39412C157.934 2.57628 157.804 2.83651 157.7 3.17481C157.596 3.51311 157.518 3.87744 157.492 4.29381C157.804 4.08562 158.142 3.87744 158.48 3.74732C158.819 3.59118 159.209 3.51311 159.625 3.51311C159.99 3.51311 160.354 3.56516 160.692 3.69528C161.031 3.82539 161.343 4.03357 161.603 4.29381L161.629 4.31983ZM161.291 6.89611C161.291 6.16747 161.135 5.59496 160.796 5.20461C160.458 4.81427 159.99 4.60608 159.365 4.60608C159.027 4.60608 158.689 4.65813 158.376 4.76222C158.064 4.86631 157.752 5.02245 157.492 5.20461C157.492 5.30871 157.465 5.43882 157.465 5.56894C157.465 5.72507 157.439 5.85519 157.439 5.95928C157.439 6.68793 157.492 7.26043 157.622 7.72885C157.752 8.17124 157.908 8.53556 158.116 8.7958C158.298 9.03 158.506 9.18614 158.715 9.29023C158.923 9.3683 159.157 9.42035 159.391 9.42035C159.99 9.42035 160.458 9.18614 160.796 8.74375C161.135 8.30136 161.291 7.6768 161.291 6.89611ZM169.202 10.2531H168.031V5.04847L164.752 10.2531H163.685V3.27891H164.856V8.37943L168.109 3.27891H169.202V10.2531ZM176.384 10.2531H175.213V7.13032H172.064V10.2531H170.893V3.27891H172.064V6.0894H175.213V3.27891H176.384V10.2531ZM180.834 10.4092C180.366 10.4092 179.923 10.3312 179.507 10.175C179.117 10.0189 178.778 9.8107 178.466 9.49842C178.18 9.18614 177.946 8.82182 177.789 8.3534C177.633 7.88499 177.555 7.36453 177.555 6.73997C177.555 6.14144 177.633 5.59496 177.789 5.15257C177.946 4.71017 178.18 4.34585 178.44 4.03357C178.726 3.7213 179.065 3.48709 179.455 3.33095C179.871 3.17481 180.314 3.09674 180.782 3.09674C181.172 3.09674 181.537 3.14879 181.901 3.25288C182.265 3.35698 182.578 3.48709 182.864 3.61721V4.94438H182.786C182.708 4.86631 182.604 4.78824 182.474 4.71017C182.344 4.60608 182.187 4.52801 182.005 4.42392C181.849 4.34585 181.641 4.26778 181.433 4.21574C181.225 4.16369 180.99 4.11164 180.808 4.11164C180.21 4.11164 179.715 4.34585 179.351 4.81427C178.987 5.28268 178.804 5.93326 178.804 6.766C178.804 7.59873 178.987 8.22329 179.351 8.6917C179.715 9.16012 180.21 9.39433 180.834 9.39433C181.225 9.39433 181.589 9.31626 181.927 9.16012C182.265 9.00398 182.578 8.7958 182.838 8.56159H182.916V9.88876C182.786 9.94081 182.656 10.0189 182.474 10.0969C182.291 10.175 182.135 10.2271 182.005 10.2791C181.797 10.3312 181.641 10.3832 181.459 10.4092C181.303 10.4352 181.094 10.4613 180.86 10.4613L180.834 10.4092ZM189.552 10.2531H188.095L185.701 7.05225H185.128V10.2531H183.957V3.27891H185.128V6.29758C185.44 6.29758 185.701 6.21951 185.909 6.11542C186.117 5.9853 186.299 5.7511 186.455 5.4128C186.507 5.30871 186.559 5.17859 186.611 5.04847C186.663 4.91836 186.715 4.78824 186.741 4.68415C186.924 4.16369 187.184 3.79937 187.496 3.59118C187.834 3.383 188.251 3.27891 188.771 3.27891H189.084V4.29381H188.823C188.485 4.29381 188.251 4.37187 188.095 4.50199C187.938 4.63211 187.782 4.89234 187.678 5.23064C187.574 5.59496 187.418 5.88121 187.262 6.06337C187.106 6.27156 186.924 6.4277 186.741 6.53179L189.578 10.2271L189.552 10.2531ZM195.797 10.2531H194.626V5.04847L191.348 10.2531H190.281V3.27891H191.452V8.37943L194.704 3.27891H195.797V10.2531ZM203.006 10.2531H201.835V5.04847L198.556 10.2531H197.489V3.27891H198.66V8.37943L201.913 3.27891H203.006V10.2531ZM202.485 0.0520461C202.485 0.416369 202.433 0.728646 202.355 1.0149C202.277 1.30115 202.147 1.56138 201.991 1.74355C201.809 1.95173 201.601 2.13389 201.366 2.23798C201.132 2.34208 200.82 2.39412 200.456 2.39412C200.117 2.39412 199.805 2.34208 199.571 2.21196C199.311 2.10787 199.102 1.92571 198.92 1.71752C198.738 1.50934 198.634 1.24911 198.53 0.962853C198.452 0.6766 198.4 0.3383 198.4 0H199.415C199.415 0.572507 199.493 0.962853 199.675 1.22308C199.857 1.45729 200.117 1.58741 200.456 1.58741C200.794 1.58741 201.028 1.45729 201.21 1.22308C201.392 0.988876 201.497 0.572507 201.497 0H202.511L202.485 0.0520461ZM134.461 24.4096H133.29V18.9448L131.625 22.51H130.74L129.074 18.9448V24.4096H127.981V17.4355H129.387L131.234 21.3129L133.004 17.4355H134.435V24.4096H134.461ZM140.056 22.6921V20.7664C139.77 20.7924 139.432 20.8185 138.989 20.8705C138.573 20.9225 138.208 20.9746 137.948 21.0527C137.636 21.1568 137.376 21.2869 137.167 21.4951C136.959 21.7032 136.855 21.9635 136.855 22.3278C136.855 22.7181 136.959 23.0304 137.194 23.2386C137.428 23.4468 137.74 23.5509 138.182 23.5509C138.547 23.5509 138.885 23.4728 139.197 23.3167C139.484 23.1605 139.77 22.9523 140.03 22.7181L140.056 22.6921ZM140.056 23.655C139.952 23.733 139.822 23.8111 139.666 23.9412C139.51 24.0713 139.353 24.1754 139.197 24.2535C138.989 24.3576 138.781 24.4357 138.599 24.5137C138.417 24.5658 138.13 24.5918 137.792 24.5918C137.506 24.5918 137.22 24.5397 136.985 24.4357C136.725 24.3316 136.491 24.1754 136.309 23.9672C136.127 23.7851 135.97 23.5509 135.866 23.2646C135.762 22.9784 135.71 22.6921 135.71 22.3798C135.71 21.8854 135.814 21.4951 136.022 21.1568C136.231 20.8185 136.543 20.5582 136.985 20.35C137.376 20.1679 137.844 20.0378 138.365 19.9857C138.885 19.9076 139.458 19.8556 140.082 19.8296V19.5954C140.082 19.3091 140.03 19.1009 139.952 18.9188C139.874 18.7626 139.744 18.6325 139.614 18.5284C139.458 18.4243 139.275 18.3723 139.067 18.3463C138.859 18.3202 138.625 18.2942 138.391 18.2942C138.13 18.2942 137.792 18.3463 137.428 18.4243C137.063 18.5024 136.699 18.6325 136.335 18.7887H136.257V17.5916C136.465 17.5395 136.777 17.4615 137.194 17.3834C137.61 17.3053 138 17.2793 138.391 17.2793C138.859 17.2793 139.275 17.3053 139.588 17.3834C139.926 17.4615 140.212 17.5916 140.472 17.7998C140.733 17.9819 140.915 18.2422 141.045 18.5544C141.175 18.8667 141.227 19.231 141.227 19.6734V24.4357H140.056V23.707V23.655ZM151.116 24.3836H142.867V17.4094H144.038V23.3687H146.406V17.4094H147.577V23.3687H149.945V17.4094H151.116V24.3836ZM158.324 24.3836H157.153V19.179L153.874 24.3836H152.807V17.4094H153.978V22.51L157.231 17.4094H158.324V24.3836ZM165.507 24.3836H164.336V21.2608H161.187V24.3836H160.016V17.4094H161.187V20.2199H164.336V17.4094H165.507V24.3836ZM172.923 20.8965C172.923 22.0676 172.637 22.9784 172.064 23.6029C171.492 24.2535 170.737 24.5658 169.8 24.5658C168.838 24.5658 168.083 24.2275 167.51 23.5769C166.964 22.9263 166.678 22.0155 166.678 20.8965C166.678 19.7255 166.964 18.8407 167.536 18.1901C168.109 17.5395 168.864 17.2273 169.8 17.2273C170.737 17.2273 171.492 17.5395 172.064 18.1901C172.637 18.8407 172.923 19.7255 172.923 20.8965ZM171.726 20.8965C171.726 19.9857 171.57 19.3351 171.232 18.8927C170.893 18.4504 170.425 18.2422 169.826 18.2422C169.228 18.2422 168.733 18.4504 168.421 18.8927C168.083 19.3351 167.927 20.0117 167.927 20.8965C167.927 21.7813 168.083 22.4319 168.421 22.8743C168.759 23.3167 169.228 23.5509 169.826 23.5509C170.425 23.5509 170.893 23.3167 171.232 22.8743C171.57 22.4319 171.726 21.7553 171.726 20.8705V20.8965ZM176.905 24.5397C176.436 24.5397 175.994 24.4617 175.578 24.3055C175.187 24.1494 174.849 23.9412 174.537 23.6289C174.25 23.3167 174.016 22.9523 173.86 22.51C173.704 22.0415 173.626 21.5211 173.626 20.8965C173.626 20.298 173.704 19.7515 173.86 19.3091C174.016 18.8667 174.25 18.5024 174.511 18.1901C174.797 17.8778 175.135 17.6436 175.525 17.4875C175.942 17.3314 176.384 17.2533 176.853 17.2533C177.243 17.2533 177.607 17.3053 177.972 17.4094C178.336 17.5135 178.648 17.6436 178.935 17.7738V19.1009H178.856C178.778 19.0229 178.674 18.9448 178.544 18.8667C178.414 18.7626 178.258 18.6846 178.076 18.5805C177.92 18.5024 177.711 18.4243 177.503 18.3723C177.295 18.3202 177.061 18.2682 176.879 18.2682C176.28 18.2682 175.786 18.5024 175.421 18.9708C175.057 19.4392 174.875 20.0898 174.875 20.9225C174.875 21.7553 175.057 22.3798 175.421 22.8483C175.786 23.3167 176.28 23.5509 176.905 23.5509C177.295 23.5509 177.659 23.4728 177.998 23.3167C178.336 23.1605 178.648 22.9523 178.908 22.7181H178.987V24.0453C178.856 24.0974 178.726 24.1754 178.544 24.2535C178.362 24.3316 178.206 24.3836 178.076 24.4357C177.868 24.4877 177.711 24.5397 177.529 24.5658C177.373 24.5918 177.165 24.6178 176.931 24.6178L176.905 24.5397ZM185.128 18.4504H182.76V24.3836H181.589V18.4504H179.221V17.4094H185.128V18.4504ZM191.842 20.7144C191.842 21.8854 191.556 22.7962 191.009 23.4728C190.463 24.1494 189.76 24.5137 188.901 24.5137C188.563 24.5137 188.251 24.4617 187.991 24.3836C187.73 24.3055 187.444 24.1754 187.184 24.0193V26.9339H186.013V17.4094H187.184V18.1381C187.47 17.8778 187.808 17.6697 188.147 17.4875C188.511 17.3053 188.901 17.2273 189.318 17.2273C190.124 17.2273 190.749 17.5395 191.191 18.1641C191.634 18.7887 191.868 19.6474 191.868 20.7144H191.842ZM190.645 20.8445C190.645 20.0378 190.515 19.4392 190.255 18.9968C189.994 18.5544 189.578 18.3463 189.031 18.3463C188.693 18.3463 188.381 18.4243 188.069 18.5805C187.756 18.7366 187.47 18.9188 187.184 19.153V23.1085C187.496 23.2646 187.756 23.3687 187.965 23.4208C188.173 23.4728 188.433 23.4988 188.719 23.4988C189.318 23.4988 189.786 23.2646 190.124 22.8222C190.463 22.3798 190.619 21.7293 190.619 20.8705L190.645 20.8445ZM198.79 20.8965C198.79 22.0676 198.504 22.9784 197.931 23.6029C197.359 24.2535 196.604 24.5658 195.667 24.5658C194.704 24.5658 193.95 24.2275 193.377 23.5769C192.831 22.9263 192.545 22.0155 192.545 20.8965C192.545 19.7255 192.831 18.8407 193.403 18.1901C193.976 17.5395 194.731 17.2273 195.667 17.2273C196.604 17.2273 197.359 17.5395 197.931 18.1901C198.504 18.8407 198.79 19.7255 198.79 20.8965ZM197.593 20.8965C197.593 19.9857 197.437 19.3351 197.099 18.8927C196.76 18.4504 196.292 18.2422 195.693 18.2422C195.095 18.2422 194.6 18.4504 194.288 18.8927C193.95 19.3351 193.794 20.0117 193.794 20.8965C193.794 21.7813 193.95 22.4319 194.288 22.8743C194.626 23.3167 195.095 23.5509 195.693 23.5509C196.292 23.5509 196.76 23.3167 197.099 22.8743C197.437 22.4319 197.593 21.7553 197.593 20.8705V20.8965ZM205.504 24.3836H204.333V19.179L201.054 24.3836H199.987V17.4094H201.158V22.51L204.411 17.4094H205.504V24.3836ZM212.296 18.4504H209.928V24.3836H208.757V18.4504H206.389V17.4094H212.296V18.4504ZM216.2 24.5397C215.081 24.5397 214.222 24.2275 213.623 23.6029C212.999 22.9784 212.712 22.0936 212.712 20.9486C212.712 19.8036 212.999 18.9188 213.597 18.2422C214.196 17.5656 214.976 17.2273 215.939 17.2273C216.382 17.2273 216.746 17.2793 217.084 17.4094C217.423 17.5395 217.709 17.7217 217.969 17.9819C218.229 18.2422 218.412 18.5805 218.542 18.9708C218.672 19.3612 218.75 19.8296 218.75 20.3761V21.0006H213.936C213.936 21.8073 214.144 22.4319 214.534 22.8483C214.95 23.2646 215.497 23.4988 216.226 23.4988C216.486 23.4988 216.746 23.4728 216.98 23.4208C217.214 23.3687 217.449 23.2906 217.657 23.1865C217.865 23.0825 218.047 23.0044 218.203 22.9003C218.359 22.8222 218.464 22.7181 218.568 22.6401H218.646V23.9152C218.516 23.9672 218.333 24.0453 218.125 24.1234C217.917 24.2014 217.735 24.2795 217.579 24.3055C217.345 24.3576 217.136 24.4096 216.954 24.4617C216.772 24.4877 216.538 24.5137 216.252 24.5137L216.2 24.5397ZM217.579 20.1158C217.579 19.8036 217.527 19.5173 217.475 19.3091C217.397 19.0749 217.319 18.8927 217.188 18.7366C217.058 18.5544 216.876 18.4243 216.668 18.3463C216.46 18.2422 216.2 18.2161 215.861 18.2161C215.549 18.2161 215.289 18.2682 215.055 18.3463C214.846 18.4504 214.638 18.5805 214.456 18.7626C214.274 18.9448 214.144 19.153 214.066 19.3612C213.962 19.5954 213.91 19.8296 213.883 20.1419H217.579V20.1158ZM225.308 24.3836H224.137V18.3983H221.742C221.716 18.7366 221.716 19.0749 221.716 19.3872C221.716 19.6995 221.69 19.9857 221.69 20.2459C221.664 20.8965 221.612 21.443 221.56 21.8854C221.508 22.3278 221.43 22.6921 221.326 22.9523C221.222 23.2386 221.144 23.4468 221.014 23.6029C220.91 23.7591 220.78 23.8892 220.649 24.0193C220.519 24.1494 220.363 24.2275 220.181 24.3055C220.025 24.3576 219.843 24.4096 219.635 24.4096C219.557 24.4096 219.478 24.4096 219.374 24.4096C219.27 24.4096 219.192 24.4096 219.166 24.4096V23.3947H219.218C219.244 23.3947 219.27 23.3947 219.322 23.3947C219.348 23.3947 219.4 23.3947 219.426 23.3947C219.53 23.3947 219.635 23.3687 219.713 23.3427C219.817 23.3167 219.895 23.2646 219.973 23.1865C220.181 22.9784 220.337 22.614 220.415 22.1196C220.519 21.5991 220.571 20.8965 220.623 19.9857C220.649 19.6474 220.649 19.231 220.676 18.7887C220.702 18.3202 220.702 17.8778 220.728 17.4615H225.308V24.4357V24.3836ZM232.282 22.2237C232.282 22.562 232.204 22.8743 232.074 23.1345C231.943 23.4208 231.761 23.6289 231.527 23.8111C231.267 24.0193 230.955 24.1754 230.642 24.2535C230.33 24.3316 229.94 24.3836 229.445 24.3836H226.999V17.4094H228.17V20.1158H229.471C229.992 20.1158 230.408 20.1419 230.694 20.1939C230.981 20.2459 231.267 20.3761 231.553 20.5842C231.787 20.7664 231.97 21.0006 232.1 21.2608C232.23 21.5471 232.282 21.8594 232.282 22.1977V22.2237ZM231.085 22.2497C231.085 22.0415 231.059 21.8594 230.981 21.7032C230.903 21.5471 230.798 21.417 230.616 21.3129C230.434 21.2088 230.252 21.1568 230.018 21.1307C229.784 21.1047 229.471 21.1047 229.055 21.1047H228.17V23.4728H229.029C229.445 23.4728 229.758 23.4468 229.992 23.4208C230.226 23.3947 230.408 23.3167 230.59 23.2126C230.772 23.1085 230.877 22.9784 230.955 22.8222C231.033 22.6661 231.059 22.4839 231.059 22.2497H231.085ZM238.918 24.3836H237.747V21.2608H234.598V24.3836H233.427V17.4094H234.598V20.2199H237.747V17.4094H238.918V24.3836ZM245.788 22.2237C245.788 22.562 245.71 22.8743 245.58 23.1345C245.449 23.4208 245.267 23.6289 245.033 23.8111C244.773 24.0193 244.461 24.1754 244.148 24.2535C243.836 24.3316 243.446 24.3836 242.951 24.3836H240.609V17.4094H241.78V20.1158H242.977C243.498 20.1158 243.914 20.1419 244.2 20.1939C244.487 20.2459 244.773 20.3761 245.059 20.5842C245.293 20.7664 245.475 21.0006 245.606 21.2608C245.736 21.5471 245.788 21.8594 245.788 22.1977V22.2237ZM244.591 22.2497C244.591 22.0415 244.565 21.8594 244.487 21.7032C244.409 21.5471 244.304 21.417 244.122 21.3129C243.94 21.2088 243.758 21.1568 243.524 21.1307C243.29 21.1047 242.977 21.1047 242.561 21.1047H241.806V23.4728H242.561C242.977 23.4728 243.29 23.4468 243.524 23.4208C243.758 23.3947 243.94 23.3167 244.122 23.2126C244.304 23.1085 244.409 22.9784 244.487 22.8222C244.565 22.6661 244.591 22.4839 244.591 22.2497ZM247.792 24.3836H246.621V17.4094H247.792V24.3836ZM255 24.3836H253.829V19.179L250.55 24.3836H249.483V17.4094H250.654V22.51L253.907 17.4094H255V24.3836ZM254.479 14.1826C254.479 14.5469 254.427 14.8592 254.349 15.1454C254.271 15.4317 254.141 15.6919 253.985 15.8741C253.803 16.0823 253.595 16.2644 253.36 16.3685C253.126 16.4726 252.814 16.5246 252.45 16.5246C252.111 16.5246 251.799 16.4726 251.565 16.3425C251.305 16.2384 251.096 16.0562 250.914 15.848C250.732 15.6399 250.628 15.3796 250.524 15.0934C250.446 14.8071 250.394 14.4688 250.394 14.1305H251.409C251.409 14.703 251.487 15.0934 251.669 15.3536C251.851 15.5878 252.111 15.7179 252.45 15.7179C252.788 15.7179 253.022 15.5878 253.204 15.3536C253.386 15.1194 253.491 14.703 253.491 14.1305H254.505L254.479 14.1826ZM132.77 36.6145C132.77 37.0048 132.692 37.3431 132.509 37.6033C132.327 37.8636 132.119 38.0978 131.859 38.2539C131.599 38.41 131.312 38.5141 131 38.5922C130.688 38.6703 130.349 38.6963 130.037 38.6963C129.569 38.6963 129.152 38.6442 128.736 38.5662C128.32 38.4881 127.929 38.332 127.513 38.1498V36.8487H127.591C127.877 37.1089 128.216 37.3171 128.658 37.4732C129.074 37.6294 129.517 37.7074 129.933 37.7074C130.115 37.7074 130.323 37.6814 130.532 37.6554C130.74 37.6294 130.922 37.5513 131.052 37.4732C131.234 37.3431 131.39 37.239 131.468 37.1089C131.547 36.9788 131.599 36.7966 131.599 36.5624C131.599 36.3022 131.547 36.12 131.468 35.9639C131.364 35.8077 131.234 35.7036 131.078 35.6256C130.922 35.5475 130.74 35.4955 130.532 35.4955C130.323 35.4694 130.115 35.4694 129.881 35.4694H129.048V34.4545H129.673C129.829 34.4545 130.037 34.4545 130.271 34.4285C130.506 34.4285 130.688 34.3765 130.844 34.3244C131.026 34.2464 131.156 34.1683 131.286 34.0382C131.39 33.9081 131.442 33.6999 131.442 33.4136C131.442 33.2054 131.39 33.0493 131.312 32.9192C131.208 32.7891 131.104 32.685 130.974 32.6329C130.844 32.5549 130.688 32.5028 130.506 32.4768C130.349 32.4508 130.167 32.4247 130.037 32.4247C129.647 32.4247 129.256 32.4768 128.892 32.5809C128.528 32.685 128.216 32.8671 127.955 33.0753H127.877V31.8002C128.19 31.6961 128.502 31.618 128.866 31.54C129.23 31.4619 129.595 31.4098 129.959 31.4098C130.245 31.4098 130.558 31.4359 130.87 31.4879C131.182 31.54 131.468 31.644 131.729 31.8002C131.989 31.9303 132.197 32.1385 132.379 32.3727C132.561 32.6329 132.639 32.9192 132.639 33.2835C132.639 33.6478 132.535 33.9861 132.327 34.2724C132.119 34.5586 131.833 34.7408 131.468 34.8449V34.8969C131.859 35.027 132.171 35.2352 132.431 35.4955C132.666 35.7817 132.796 36.146 132.796 36.5884L132.77 36.6145ZM137.896 36.8226V34.8969C137.61 34.923 137.272 34.949 136.829 35.001C136.413 35.0531 136.049 35.1051 135.788 35.1832C135.476 35.2873 135.216 35.4174 135.008 35.6256C134.799 35.8338 134.695 36.094 134.695 36.4583C134.695 36.8487 134.799 37.1609 135.034 37.3691C135.268 37.5773 135.58 37.6814 136.022 37.6814C136.387 37.6814 136.725 37.6033 137.037 37.4472C137.324 37.2911 137.61 37.0829 137.87 36.8487L137.896 36.8226ZM137.896 37.7855C137.792 37.8636 137.662 37.9416 137.506 38.0717C137.35 38.2019 137.194 38.3059 137.037 38.384C136.829 38.4881 136.621 38.5662 136.439 38.6442C136.257 38.6963 135.97 38.7223 135.632 38.7223C135.346 38.7223 135.06 38.6703 134.825 38.5662C134.565 38.4621 134.331 38.3059 134.149 38.0978C133.967 37.9156 133.811 37.6814 133.706 37.3951C133.602 37.1089 133.55 36.8226 133.55 36.5104C133.55 36.0159 133.654 35.6256 133.863 35.2873C134.071 34.949 134.383 34.6887 134.825 34.4806C135.216 34.2984 135.684 34.1683 136.205 34.1162C136.725 34.0382 137.298 33.9861 137.922 33.9601V33.7259C137.922 33.4396 137.87 33.2315 137.792 33.0493C137.714 32.8932 137.584 32.763 137.454 32.6589C137.298 32.5549 137.115 32.5028 136.907 32.4768C136.699 32.4508 136.465 32.4247 136.231 32.4247C135.97 32.4247 135.632 32.4768 135.268 32.5549C134.903 32.6329 134.539 32.763 134.175 32.9192H134.097V31.7221C134.305 31.6701 134.617 31.592 135.034 31.5139C135.45 31.4359 135.84 31.4098 136.231 31.4098C136.699 31.4098 137.115 31.4359 137.428 31.5139C137.766 31.592 138.052 31.7221 138.313 31.9303C138.573 32.1125 138.755 32.3727 138.885 32.685C139.015 32.9972 139.067 33.3616 139.067 33.804V38.5662H137.896V37.8375V37.7855ZM146.171 36.4063C146.171 36.7446 146.119 37.0308 145.989 37.2911C145.859 37.5513 145.677 37.7595 145.469 37.9416C145.183 38.1758 144.896 38.3059 144.584 38.384C144.272 38.4621 143.907 38.4881 143.465 38.4881H140.733V31.5139H143.283C143.803 31.5139 144.168 31.54 144.402 31.566C144.636 31.592 144.87 31.6701 145.105 31.8002C145.339 31.9303 145.521 32.1125 145.651 32.3206C145.781 32.5288 145.833 32.7891 145.833 33.1013C145.833 33.4396 145.729 33.7259 145.547 33.9861C145.365 34.2464 145.131 34.4545 144.818 34.6107L144.844 34.6627C145.235 34.7668 145.547 34.949 145.807 35.2352C146.067 35.5215 146.197 35.9118 146.197 36.3542L146.171 36.4063ZM144.61 33.3355C144.61 33.1794 144.584 33.0493 144.532 32.9192C144.48 32.7891 144.402 32.711 144.272 32.6329C144.116 32.5549 143.96 32.5028 143.777 32.5028C143.595 32.4768 143.335 32.4768 142.997 32.4768H141.878V34.3765H143.231C143.517 34.3765 143.725 34.3765 143.829 34.3244C143.96 34.2984 144.09 34.2464 144.22 34.1423C144.35 34.0642 144.454 33.9341 144.506 33.804C144.558 33.6738 144.584 33.4917 144.584 33.2835L144.61 33.3355ZM144.974 36.4063C144.974 36.1721 144.948 35.9899 144.87 35.8338C144.792 35.7036 144.662 35.5735 144.428 35.4434C144.272 35.3653 144.116 35.3393 143.96 35.3133C143.803 35.2873 143.569 35.2873 143.257 35.2873H141.878V37.5513H142.893C143.309 37.5513 143.647 37.5253 143.881 37.4992C144.116 37.4732 144.324 37.3951 144.48 37.2911C144.662 37.187 144.792 37.0568 144.87 36.9267C144.948 36.7966 145 36.6145 145 36.3802L144.974 36.4063ZM153.146 35.027C153.146 36.1981 152.859 37.1089 152.287 37.7334C151.714 38.384 150.96 38.6963 150.023 38.6963C149.06 38.6963 148.305 38.358 147.733 37.7074C147.186 37.0568 146.9 36.146 146.9 35.027C146.9 33.856 147.186 32.9712 147.759 32.3206C148.331 31.6701 149.086 31.3578 150.023 31.3578C150.96 31.3578 151.714 31.6701 152.287 32.3206C152.859 32.9712 153.146 33.856 153.146 35.027ZM151.949 35.027C151.949 34.1162 151.792 33.4657 151.454 33.0233C151.116 32.5809 150.647 32.3727 150.049 32.3727C149.45 32.3727 148.956 32.5809 148.644 33.0233C148.305 33.4657 148.149 34.1423 148.149 35.027C148.149 35.9118 148.305 36.5624 148.644 37.0048C148.982 37.4472 149.45 37.6814 150.049 37.6814C150.647 37.6814 151.116 37.4472 151.454 37.0048C151.792 36.5624 151.949 35.8858 151.949 35.001V35.027ZM160.328 40.1796H159.235V38.4881H154.655V40.1796H153.562V37.4992H154.03C154.421 36.8487 154.759 36.0159 154.993 34.949C155.254 33.9081 155.358 32.763 155.358 31.5139H159.625V37.4732H160.328V40.1536V40.1796ZM158.454 37.4992V32.5288H156.451C156.399 33.5698 156.242 34.5066 156.034 35.3653C155.8 36.2241 155.514 36.9267 155.175 37.4992H158.48H158.454Z" fill="#313131"/>
</svg>
