<svg width="255" height="87" viewBox="0 0 255 87" fill="none" xmlns="http://www.w3.org/2000/svg">
<path d="M197.719 55.0905C194.923 55.0905 192.648 57.3646 192.648 60.1595C192.648 62.9566 194.923 65.2299 197.719 65.2299C200.514 65.2299 202.789 62.9566 202.789 60.1595C202.789 57.3646 200.514 55.0905 197.719 55.0905ZM197.719 68.7301C192.994 68.7301 189.149 64.8856 189.149 60.1595C189.149 55.4355 192.994 51.5903 197.719 51.5903C202.444 51.5903 206.288 55.4355 206.288 60.1595C206.288 64.8856 202.444 68.7301 197.719 68.7301Z" fill="#313131"/>
<path d="M172.259 21.8396C172.37 21.5976 172.434 21.3807 172.443 21.1877C172.458 21.0026 172.411 20.8491 172.306 20.7368C172.198 20.6244 172.028 20.5675 171.789 20.5675H169.244C168.973 20.5675 168.714 20.6244 168.465 20.7209C168.217 20.8333 167.99 20.9781 167.793 21.1632C167.59 21.3563 167.428 21.5817 167.309 21.8396L166.008 24.6071C165.732 25.1949 165.331 25.6372 164.796 25.9513C164.266 26.2726 163.602 26.426 162.8 26.4339V21.3966C162.796 21.1553 162.718 20.9622 162.56 20.8088C162.409 20.6482 162.211 20.5754 161.971 20.5675H158.956C158.716 20.5754 158.518 20.6482 158.366 20.8088C158.209 20.9622 158.131 21.1553 158.126 21.3966V34.537C158.131 34.7711 158.209 34.9714 158.366 35.1248C158.518 35.2775 158.716 35.3582 158.956 35.3661H161.971C162.211 35.3582 162.409 35.2775 162.56 35.1248C162.718 34.9714 162.796 34.7711 162.8 34.537V29.4997C163.219 29.4997 163.626 29.5645 164.017 29.6927C164.414 29.8296 164.782 30.0227 165.123 30.2964C165.46 30.5543 165.755 30.8921 166.008 31.302L167.723 34.0947C167.87 34.3281 168.05 34.5457 168.262 34.7387C168.47 34.9318 168.705 35.0845 168.963 35.1968C169.225 35.302 169.502 35.3582 169.797 35.3661H172.342C172.582 35.3582 172.761 35.302 172.882 35.1968C173.001 35.0845 173.056 34.9318 173.048 34.7387C173.037 34.5457 172.96 34.3281 172.812 34.0947L170.516 30.385C170.106 29.7252 169.663 29.1943 169.194 28.7916C168.723 28.3976 168.203 28.1159 167.641 27.9546C168.041 27.8667 168.419 27.7053 168.783 27.4799C169.148 27.2544 169.479 26.9735 169.779 26.6356C170.074 26.2971 170.319 25.9268 170.516 25.5169L172.259 21.8396Z" fill="#313131"/>
<path d="M143.911 30.2726V21.3966C143.907 21.1553 143.829 20.9622 143.672 20.8088C143.519 20.6482 143.321 20.5754 143.082 20.5675H140.261C140.021 20.5754 139.822 20.6482 139.671 20.8088C139.514 20.9622 139.435 21.1553 139.43 21.3966V34.537C139.435 34.7711 139.514 34.9714 139.671 35.1248C139.822 35.2775 140.021 35.3582 140.261 35.3661H144.05C144.238 35.3582 144.429 35.3179 144.621 35.2293C144.815 35.1407 144.999 35.0283 145.165 34.8835C145.33 34.7308 145.464 34.5694 145.571 34.3922L150.327 25.6855V34.537C150.333 34.7711 150.415 34.9714 150.567 35.1248C150.719 35.2775 150.917 35.3582 151.157 35.3661H153.977C154.219 35.3582 154.416 35.2775 154.568 35.1248C154.725 34.9714 154.803 34.7711 154.808 34.537V21.3966C154.803 21.1553 154.725 20.9622 154.568 20.8088C154.416 20.6482 154.219 20.5754 153.977 20.5675H150.189C150.005 20.5675 149.811 20.6157 149.618 20.6964C149.424 20.7771 149.244 20.8981 149.074 21.0343C148.908 21.1877 148.774 21.3483 148.668 21.5335L143.911 30.2726Z" fill="#313131"/>
<path d="M123.362 20.5675C123.122 20.5754 122.924 20.6482 122.772 20.8088C122.615 20.9622 122.538 21.1553 122.532 21.3966V22.9979C122.538 23.2392 122.615 23.4409 122.772 23.5936C122.924 23.7463 123.122 23.827 123.362 23.8349H127.676V34.537C127.681 34.7711 127.759 34.9714 127.916 35.1248C128.068 35.2775 128.267 35.3582 128.506 35.3661H131.52C131.76 35.3582 131.958 35.2775 132.111 35.1248C132.268 34.9714 132.346 34.7711 132.351 34.537V23.8349H136.665C136.905 23.827 137.102 23.7463 137.255 23.5936C137.411 23.4409 137.49 23.2392 137.495 22.9979V21.3966C137.49 21.1553 137.411 20.9622 137.255 20.8088C137.102 20.6482 136.905 20.5754 136.665 20.5675H123.362Z" fill="#313131"/>
<path d="M114.263 23.5533C114.973 23.5612 115.572 23.6815 116.065 23.907C116.562 24.1404 116.928 24.4465 117.167 24.8247C117.355 25.1388 117.577 25.3714 117.826 25.5486C118.074 25.7338 118.375 25.8144 118.715 25.8224H120.734C120.974 25.8144 121.172 25.7417 121.324 25.581C121.481 25.4283 121.559 25.2353 121.564 24.9932C121.559 23.9394 121.25 23.0707 120.642 22.3705C120.033 21.6703 119.163 21.1553 118.024 20.8088C116.886 20.463 115.521 20.2945 113.931 20.2945C112.231 20.2945 110.782 20.5754 109.589 21.1553C108.395 21.7265 107.487 22.5873 106.86 23.7218C106.233 24.865 105.915 26.2812 105.911 27.979C105.915 29.669 106.228 31.0772 106.86 32.2197C107.487 33.3463 108.408 34.2078 109.617 34.7783C110.829 35.3503 112.313 35.6399 114.068 35.6399C115.66 35.6399 117.023 35.4706 118.162 35.1248C119.302 34.7711 120.172 34.2554 120.781 33.5552C121.389 32.8637 121.698 31.9863 121.702 30.9404C121.698 30.699 121.62 30.4981 121.462 30.3526C121.31 30.1919 121.112 30.1113 120.872 30.1113H118.854C118.512 30.1113 118.213 30.1999 117.964 30.385C117.716 30.5543 117.494 30.7956 117.305 31.101C117.065 31.4792 116.701 31.7932 116.204 32.0187C115.71 32.2521 115.111 32.3731 114.401 32.3803C113.484 32.3803 112.755 32.2276 112.216 31.9143C111.677 31.6002 111.294 31.1255 111.064 30.4736C110.829 29.8217 110.718 28.9933 110.723 27.979C110.718 26.9569 110.829 26.1199 111.054 25.4687C111.284 24.8168 111.658 24.3334 112.179 24.0201C112.695 23.706 113.392 23.5533 114.263 23.5533Z" fill="#313131"/>
<path d="M92.5252 30.2726V21.3966C92.5202 21.1553 92.4416 20.9622 92.2846 20.8088C92.1333 20.6482 91.9352 20.5754 91.6954 20.5675H88.8745C88.6346 20.5754 88.4365 20.6482 88.2846 20.8088C88.1275 20.9622 88.049 21.1553 88.0447 21.3966V34.537C88.049 34.7711 88.1275 34.9714 88.2846 35.1248C88.4365 35.2775 88.6346 35.3582 88.8745 35.3661H92.6628C92.8522 35.3582 93.041 35.3179 93.2347 35.2293C93.4278 35.1407 93.6129 35.0283 93.7779 34.8835C93.9443 34.7308 94.0782 34.5694 94.1841 34.3922L98.9413 25.6855V34.537C98.9456 34.7711 99.0291 34.9714 99.1804 35.1248C99.3331 35.2775 99.5305 35.3582 99.7704 35.3661H102.592C102.831 35.3582 103.03 35.2775 103.182 35.1248C103.339 34.9714 103.417 34.7711 103.422 34.537V21.3966C103.417 21.1553 103.339 20.9622 103.182 20.8088C103.03 20.6482 102.831 20.5754 102.592 20.5675H98.8022C98.6185 20.5675 98.4255 20.6157 98.2317 20.6964C98.0379 20.7771 97.8579 20.8981 97.6871 21.0343C97.5215 21.1877 97.3868 21.3483 97.2816 21.5335L92.5252 30.2726Z" fill="#313131"/>
<path d="M85.2779 23.8349C85.5178 23.827 85.7166 23.7463 85.8686 23.5936C86.0249 23.4409 86.1027 23.2392 86.1085 22.9979V21.3966C86.1027 21.1553 86.0249 20.9622 85.8686 20.8088C85.7166 20.6482 85.5178 20.5754 85.2779 20.5675H75.1838C74.9439 20.5754 74.7466 20.6482 74.5939 20.8088C74.4361 20.9622 74.359 21.1553 74.3533 21.3966V34.537C74.359 34.7711 74.4361 34.9714 74.5939 35.1248C74.7466 35.2775 74.9439 35.3582 75.1838 35.3661H78.1984C78.4383 35.3582 78.6357 35.2775 78.7884 35.1248C78.9447 34.9714 79.0232 34.7711 79.0283 34.537V23.8349H85.2779Z" fill="#313131"/>
<path d="M63.7059 20.2945C61.9598 20.2945 60.4788 20.5754 59.2679 21.1474C58.0549 21.7186 57.1328 22.5715 56.5011 23.706C55.8701 24.8405 55.5517 26.2574 55.5474 27.9546C55.5517 29.6445 55.8701 31.0693 56.5011 32.2038C57.1328 33.3463 58.0549 34.1992 59.2679 34.7783C60.4788 35.3503 61.9598 35.6399 63.7059 35.6399C65.4527 35.6399 66.9323 35.3503 68.1454 34.7783C69.3577 34.1992 70.279 33.3463 70.9108 32.2038C71.5425 31.0693 71.8594 29.6445 71.8645 27.9546C71.8594 26.2574 71.5425 24.8405 70.9108 23.706C70.279 22.5715 69.3577 21.7186 68.1454 21.1474C66.9323 20.5754 65.4527 20.2945 63.7059 20.2945ZM63.7059 32.5734C62.9229 32.5734 62.2725 32.4207 61.7567 32.0994C61.2402 31.7853 60.857 31.2782 60.6049 30.5946C60.3463 29.9182 60.2216 29.0336 60.2216 27.9546C60.2216 26.8683 60.3463 25.9916 60.6049 25.3073C60.857 24.6316 61.2402 24.1404 61.7567 23.827C62.2725 23.5129 62.9229 23.3602 63.7059 23.3602C64.4897 23.3602 65.1394 23.5129 65.6559 23.827C66.1716 24.1404 66.5541 24.6316 66.8084 25.3073C67.0663 25.9916 67.1909 26.8683 67.1909 27.9546C67.1909 29.0336 67.0663 29.9182 66.8084 30.5946C66.5541 31.2782 66.1716 31.7853 65.6559 32.0994C65.1394 32.4207 64.4897 32.5734 63.7059 32.5734Z" fill="#313131"/>
<path d="M52.7814 34.0868V17.2525C52.7814 17.027 52.731 16.8181 52.6301 16.6251C52.5285 16.432 52.3953 16.2786 52.2238 16.1576C52.0538 16.0452 51.8644 15.9811 51.6468 15.9811H44.8994C43.9133 15.9732 42.9451 16.0452 42.0044 16.19C41.06 16.3427 40.1848 16.6164 39.3737 16.9946C38.5612 17.3814 37.861 17.9123 37.2667 18.6046C36.6717 19.2882 36.2294 20.1655 35.9391 21.2273L32.5089 34.2237C32.4585 34.4326 32.4628 34.6256 32.5334 34.7949C32.5968 34.9642 32.7077 35.1003 32.8597 35.2055C33.0124 35.3099 33.1918 35.3582 33.3942 35.3661H36.1329C36.3764 35.3582 36.6069 35.302 36.8237 35.1968C37.0449 35.0845 37.2343 34.9318 37.3957 34.7387C37.5563 34.5457 37.6723 34.3281 37.7364 34.0868L40.8338 22.5074C40.9865 21.952 41.2307 21.4686 41.5671 21.0667C41.9079 20.6561 42.3185 20.3507 42.8032 20.1252C43.2866 19.9076 43.8168 19.7953 44.4017 19.7953H47.6929V34.0868C47.6972 34.3281 47.7577 34.5457 47.8679 34.7387C47.9839 34.9318 48.1359 35.0845 48.329 35.1968C48.5177 35.302 48.7352 35.3582 48.9657 35.3661H51.5374C51.7722 35.3582 51.9796 35.302 52.1698 35.1968C52.3535 35.0845 52.5048 34.9318 52.6114 34.7387C52.7216 34.5457 52.7814 34.3281 52.7814 34.0868Z" fill="#313131"/>
<path d="M95.6212 52.6485C93.8744 52.6485 92.3948 52.9345 91.1832 53.5021C89.9709 54.0733 89.0488 54.9262 88.4178 56.06C87.7854 57.1982 87.4677 58.6143 87.4634 60.31C87.4677 62.0064 87.7854 63.4255 88.4178 64.5643C89.0488 65.7032 89.9709 66.5604 91.1832 67.1367C92.3948 67.7079 93.8744 67.9989 95.6212 67.9989C97.3688 67.9989 98.8483 67.7079 100.061 67.1367C101.273 66.5604 102.195 65.7032 102.826 64.5643C103.458 63.4255 103.776 62.0064 103.781 60.31C103.776 58.6143 103.458 57.1982 102.826 56.06C102.195 54.9262 101.273 54.0733 100.061 53.5021C98.8483 52.9345 97.3688 52.6485 95.6212 52.6485ZM95.6212 64.9281C94.8382 64.9332 94.1885 64.7761 93.672 64.4585C93.1562 64.1393 92.7737 63.638 92.5194 62.9566C92.2623 62.278 92.1369 61.3934 92.1369 60.31C92.1369 59.2274 92.2623 58.3457 92.5194 57.6685C92.7737 56.9914 93.1562 56.498 93.672 56.1846C94.1885 55.8706 94.8382 55.7143 95.6212 55.7193C96.4057 55.7143 97.0554 55.8706 97.5719 56.1846C98.0884 56.498 98.4709 56.9914 98.7237 57.6685C98.983 58.3457 99.1069 59.2274 99.1069 60.31C99.1069 61.3934 98.983 62.278 98.7237 62.9566C98.4709 63.638 98.0884 64.1393 97.5719 64.4585C97.0554 64.7761 96.4057 64.9332 95.6212 64.9281Z" fill="#313131"/>
<path d="M72.7778 52.9258C72.5372 52.9301 72.3391 53.0094 72.1872 53.165C72.0308 53.317 71.953 53.5158 71.948 53.7549V55.3599C71.953 55.599 72.0308 55.7978 72.1872 55.9498C72.3391 56.1018 72.5372 56.1846 72.7778 56.189H77.0919V66.8918C77.0963 67.1316 77.1755 67.3304 77.3318 67.4824C77.4838 67.6395 77.6826 67.7173 77.9218 67.7223H80.9357C81.1755 67.7173 81.3736 67.6395 81.5263 67.4824C81.6834 67.3304 81.7612 67.1316 81.7662 66.8918V56.189H86.0803C86.3202 56.1846 86.5183 56.1018 86.6703 55.9498C86.8273 55.7978 86.9058 55.599 86.9102 55.3599V53.7549C86.9058 53.5158 86.8273 53.317 86.6703 53.165C86.5183 53.0094 86.3202 52.9301 86.0803 52.9258H72.7778Z" fill="#313131"/>
<path d="M65.3655 67.7223C66.5541 67.7266 67.5878 67.6027 68.468 67.3398C69.3483 67.0819 70.0305 66.6483 70.5138 66.0396C71.0029 65.4309 71.2471 64.6104 71.2565 63.5739C71.2521 62.9652 71.1506 62.4343 70.9568 61.974C70.7587 61.5173 70.4821 61.1211 70.1313 60.789C69.7769 60.4577 69.3713 60.1804 68.9053 59.9506C69.4729 59.6091 69.8871 59.1942 70.1594 58.7015C70.431 58.2124 70.5649 57.6224 70.5649 56.936C70.5599 56.2264 70.4086 55.6134 70.1083 55.1063C69.8093 54.5985 69.3987 54.1843 68.8686 53.8615C68.3391 53.5388 67.7261 53.304 67.0295 53.1513C66.3337 52.9993 65.5867 52.9258 64.7849 52.9258H56.7085C56.4686 52.9301 56.2713 53.0094 56.1193 53.165C55.9622 53.317 55.8844 53.5158 55.8794 53.7549V66.8918C55.8844 67.1316 55.9622 67.3304 56.1193 67.4824C56.2713 67.6395 56.4686 67.7173 56.7085 67.7223H65.3655ZM65.0335 61.665C65.5363 61.67 65.9188 61.8127 66.1817 62.0849C66.4489 62.3565 66.5822 62.7253 66.5822 63.1863C66.5822 63.6474 66.4489 64.0162 66.1817 64.2877C65.9188 64.56 65.5363 64.7027 65.0335 64.707H60.553V61.665H65.0335ZM60.553 58.7058V55.9397H64.5083C64.9182 55.9448 65.246 56.078 65.4995 56.3316C65.7531 56.5851 65.8863 56.9129 65.8914 57.3235C65.8863 57.7334 65.7531 58.0604 65.4995 58.3147C65.246 58.5675 64.9182 58.6965 64.5083 58.7058H60.553Z" fill="#313131"/>
<path d="M31.4851 66.4783C31.4261 66.7074 31.4218 66.9199 31.4851 67.1093C31.5464 67.293 31.6566 67.4407 31.8223 67.5516C31.9836 67.6618 32.186 67.7173 32.4266 67.7223H35.0825C35.3253 67.7173 35.5565 67.6618 35.7733 67.5516C35.9937 67.4407 36.1832 67.2887 36.3453 67.0992C36.5059 66.9062 36.6212 66.6894 36.6853 66.4495L37.5987 63.048H47.1957V66.4495C47.2001 66.6894 47.2548 66.9062 47.3665 67.0992C47.4767 67.2887 47.6287 67.4407 47.8167 67.5516C48.0112 67.6618 48.228 67.7173 48.4679 67.7223H51.0121C51.2469 67.7173 51.4587 67.6618 51.6467 67.5516C51.8412 67.4407 51.9939 67.293 52.1092 67.1093C52.2237 66.9199 52.2799 66.7074 52.2842 66.4783V49.5799C52.2842 49.353 52.2331 49.1505 52.1315 48.9575C52.0314 48.7724 51.8923 48.6276 51.7173 48.5066C51.5466 48.3942 51.3485 48.338 51.1223 48.338H43.849C42.8622 48.3301 41.894 48.4021 40.954 48.5548C40.0096 48.6996 39.1337 48.9733 38.3226 49.353C37.5108 49.7355 36.8106 50.275 36.2163 50.9622C35.6206 51.6487 35.1783 52.5289 34.8887 53.5943L31.4851 66.4783ZM39.7827 54.8707C39.9354 54.3125 40.1796 53.8342 40.5211 53.4279C40.8568 53.018 41.2681 52.704 41.7521 52.4879C42.2355 52.2667 42.7657 52.1515 43.3506 52.1515H47.1957V59.231H38.5942L39.7827 54.8707Z" fill="#313131"/>
<path d="M173.218 43.7105H34.7145C32.7811 43.7105 31.2144 42.1416 31.2144 40.2104H173.218V43.7105Z" fill="#313131"/>
<path d="M137.467 55.0905C134.672 55.0905 132.397 57.3646 132.397 60.1595C132.397 62.9566 134.672 65.2299 137.467 65.2299C140.262 65.2299 142.536 62.9566 142.536 60.1595C142.536 57.3646 140.262 55.0905 137.467 55.0905ZM137.467 68.7301C132.742 68.7301 128.897 64.8856 128.897 60.1595C128.897 55.4355 132.742 51.5903 137.467 51.5903C142.192 51.5903 146.036 55.4355 146.036 60.1595C146.036 64.8856 142.192 68.7301 137.467 68.7301Z" fill="#313131"/>
<path d="M118.691 55.0905C115.895 55.0905 113.621 57.3646 113.621 60.1595C113.621 62.9566 115.895 65.2299 118.691 65.2299C121.487 65.2299 123.761 62.9566 123.761 60.1595C123.761 57.3646 121.487 55.0905 118.691 55.0905ZM118.691 68.7301C113.966 68.7301 110.122 64.8856 110.122 60.1595C110.122 55.4355 113.966 51.5903 118.691 51.5903C123.416 51.5903 127.261 55.4355 127.261 60.1595C127.261 64.8856 123.416 68.7301 118.691 68.7301Z" fill="#313131"/>
<path d="M182.283 55.0004H178.784V40.2104H203.789C203.789 42.1416 202.222 43.7105 200.289 43.7105H182.283V55.0004Z" fill="#313131"/>
<path d="M203.256 28.4854C203.997 27.4561 204.199 26.1199 203.795 24.9212L199.55 12.2548C198.575 12.1907 197.59 12.1186 196.572 12.0379C196.295 12.0142 196.03 11.9897 195.759 11.9652L200.477 26.032C200.539 26.2171 200.477 26.3532 200.415 26.4418C200.353 26.5305 200.238 26.6356 200.044 26.6356H186.978V30.1357H200.044C201.314 30.1357 202.515 29.5163 203.256 28.4854Z" fill="#313131"/>
<path d="M223.356 22.0723C223.417 19.5136 223.144 14.6693 220.606 10.9754C217.362 6.25219 210.734 5.79333 201.557 5.16591C200.148 5.06147 198.677 4.96494 197.148 4.84392C190.863 4.3368 186.467 2.92062 183.861 1.80193C182.985 1.42375 181.99 1.35172 181.101 1.69748C179.71 2.24494 178.846 3.55596 178.846 4.98871V26.6356C178.846 28.5661 180.412 30.1357 182.345 30.1357L182.372 4.97286C185.207 6.20392 190.025 7.78074 196.869 8.3282C198.412 8.44922 199.895 8.55367 201.316 8.65019C209.513 9.22142 215.435 9.63202 217.721 12.9557C219.7 15.8363 219.909 19.8594 219.857 21.9923C219.855 22.0643 219.799 22.1205 219.726 22.1292C217.923 22.3863 216.673 24.0121 216.88 25.8144L218.357 40.2183C218.469 41.2002 218.976 42.1013 219.754 42.7049V52.0816C219.754 52.7277 219.231 53.2514 218.585 53.2514H209.825C207.362 48.9496 202.726 46.2216 197.719 46.2216C192.712 46.2216 188.076 48.9496 185.611 53.2514H147.624C148.347 54.311 148.906 55.4902 149.272 56.7508H187.787L188.258 55.7431C189.971 52.0838 193.684 49.7196 197.719 49.7196C201.753 49.7196 205.467 52.0838 207.179 55.7431L207.651 56.7508H218.585C221.164 56.7508 223.255 54.6604 223.255 52.0816V42.576C223.255 41.538 222.751 40.5562 221.908 39.9453C221.866 39.9129 221.84 39.8726 221.834 39.8164L220.373 25.5731C222.069 25.2591 223.313 23.8104 223.356 22.0723Z" fill="#313131"/>
<path d="M122.628 84.9672H223.785C223.785 77.998 218.137 72.3498 211.168 72.3498H110.011C110.011 79.3183 115.66 84.9672 122.628 84.9672Z" fill="#313131"/>
<path d="M120.033 78.4943H120.984C121.295 78.4943 121.537 78.4301 121.711 78.3055C121.886 78.1795 121.972 77.9778 121.972 77.6997C121.972 77.4224 121.884 77.2164 121.706 77.0817C121.528 76.9484 121.29 76.8814 120.993 76.8814H120.033V78.4943ZM118.834 81.5146V75.8448H121.033C121.449 75.8448 121.818 75.9169 122.139 76.0617C122.46 76.2057 122.713 76.4154 122.896 76.6891C123.08 76.9635 123.171 77.2934 123.171 77.6795C123.171 78.0685 123.087 78.3984 122.916 78.6693C122.746 78.9416 122.5 79.1483 122.177 79.2917C121.855 79.4336 121.463 79.5063 121.005 79.5063H120.033V81.5146H118.834Z" fill="#313131"/>
<path d="M125.476 79.2873H127.06L126.258 77.1616L125.476 79.2873ZM123.452 81.5146L125.598 75.8448H126.963L129.142 81.5146H127.793L127.351 80.3001H125.193L124.763 81.5146H123.452Z" fill="#313131"/>
<path d="M131.082 80.6157H131.884C132.194 80.6157 132.432 80.5479 132.597 80.4118C132.761 80.2757 132.844 80.0783 132.844 79.8226C132.844 79.574 132.764 79.3781 132.605 79.2326C132.446 79.0878 132.222 79.0165 131.936 79.0165H131.082V80.6157ZM129.883 81.5146V75.8448H133.642V76.8893H131.082V78.1161H132.001C132.635 78.1161 133.142 78.2609 133.521 78.549C133.899 78.8357 134.087 79.2593 134.087 79.8175C134.087 80.1762 134.005 80.4831 133.839 80.7352C133.673 80.9873 133.433 81.1811 133.121 81.3144C132.809 81.4476 132.435 81.5146 131.998 81.5146H129.883Z" fill="#313131"/>
<path d="M137.806 80.5098C138.056 80.5098 138.288 80.4673 138.502 80.3808C138.715 80.2944 138.901 80.1712 139.061 80.0098C139.22 79.8499 139.344 79.6576 139.432 79.4336C139.519 79.2096 139.563 78.9582 139.563 78.6794C139.563 78.3098 139.487 77.9879 139.332 77.7141C139.179 77.4397 138.969 77.2272 138.705 77.0759C138.439 76.9254 138.139 76.8483 137.806 76.8483C137.557 76.8483 137.325 76.8929 137.111 76.9787C136.897 77.0658 136.709 77.189 136.552 77.3496C136.394 77.511 136.27 77.7026 136.184 77.9266C136.096 78.1514 136.052 78.4021 136.052 78.6794C136.052 79.0496 136.129 79.3716 136.282 79.6454C136.437 79.9198 136.646 80.1323 136.91 80.2843C137.175 80.4349 137.472 80.5098 137.806 80.5098ZM137.806 81.6364C137.374 81.6364 136.974 81.5615 136.606 81.4116C136.239 81.2625 135.92 81.0529 135.648 80.7864C135.377 80.5191 135.167 80.2058 135.019 79.8463C134.87 79.4869 134.796 79.0979 134.796 78.6794C134.796 78.2594 134.87 77.869 135.019 77.5088C135.167 77.1501 135.377 76.8368 135.648 76.5702C135.92 76.303 136.239 76.0941 136.606 75.9464C136.974 75.7973 137.374 75.7231 137.806 75.7231C138.237 75.7231 138.636 75.7987 139.002 75.95C139.367 76.1013 139.687 76.3124 139.957 76.5818C140.23 76.8512 140.44 77.166 140.591 77.524C140.743 77.8812 140.818 78.2666 140.818 78.6794C140.818 79.0979 140.743 79.4869 140.591 79.8463C140.44 80.2058 140.23 80.5191 139.957 80.7864C139.687 81.0529 139.367 81.2625 139.002 81.4116C138.636 81.5615 138.237 81.6364 137.806 81.6364Z" fill="#313131"/>
<path d="M142.872 81.5146V76.9426H141.333V75.8448H145.618V76.9426H144.079V81.5146H142.872Z" fill="#313131"/>
<path d="M147.866 79.2873H149.449L148.647 77.1616L147.866 79.2873ZM145.84 81.5146L147.988 75.8448H149.352L151.53 81.5146H150.182L149.74 80.3001H147.583L147.153 81.5146H145.84Z" fill="#313131"/>
<path d="M152.272 81.5146V75.8448H156.149V76.8893H153.472V78.1046H155.74V79.0727H153.472V80.4586H156.181V81.5146H152.272Z" fill="#313131"/>
<path d="M157.355 81.5146V75.8448H158.51L160.717 79.4811L160.243 79.489L162.349 75.8448H163.495V81.5146H162.333L162.354 77.3914L162.568 77.4692L160.835 80.3974H160.016L158.23 77.4692L158.433 77.3914L158.453 81.5146H157.355Z" fill="#313131"/>
<path d="M169.393 81.6364C168.806 81.6364 168.29 81.5154 167.845 81.274C167.4 81.032 167.052 80.692 166.804 80.2512C166.555 79.811 166.432 79.2917 166.432 78.6916C166.432 78.2573 166.504 77.8589 166.65 77.498C166.797 77.1357 167.003 76.8209 167.27 76.5551C167.537 76.2893 167.853 76.0847 168.216 75.9399C168.579 75.7959 168.976 75.7231 169.409 75.7231C169.867 75.7231 170.257 75.7815 170.575 75.8982C170.894 76.0127 171.18 76.1769 171.433 76.3873L170.826 77.3712C170.661 77.2099 170.466 77.0889 170.241 77.0089C170.016 76.9297 169.764 76.8893 169.489 76.8893C169.208 76.8893 168.956 76.9304 168.734 77.0132C168.512 77.0954 168.322 77.2149 168.167 77.3712C168.012 77.5283 167.894 77.717 167.811 77.936C167.728 78.1564 167.688 78.4028 167.688 78.6765C167.688 79.054 167.76 79.3759 167.907 79.6418C168.054 79.9076 168.265 80.1121 168.541 80.2555C168.814 80.3981 169.141 80.4701 169.522 80.4701C169.784 80.4701 170.042 80.4291 170.297 80.3491C170.552 80.2677 170.795 80.1381 171.024 79.9594L171.575 80.9686C171.307 81.1732 170.995 81.3367 170.636 81.457C170.276 81.5759 169.862 81.6364 169.393 81.6364Z" fill="#313131"/>
<path d="M174.074 81.5146V80.7136L175.284 79.6158C175.662 79.2729 175.962 78.9841 176.182 78.7507C176.402 78.5173 176.559 78.3098 176.652 78.1283C176.745 77.9482 176.792 77.7667 176.792 77.5823C176.792 77.3129 176.702 77.1026 176.52 76.9542C176.34 76.8058 176.083 76.7316 175.751 76.7316C175.506 76.7316 175.268 76.7784 175.04 76.8713C174.812 76.9643 174.61 77.1026 174.435 77.287L174.022 76.4161C174.27 76.1942 174.555 76.0235 174.878 75.9032C175.201 75.7836 175.532 75.7231 175.872 75.7231C176.283 75.7231 176.641 75.7951 176.945 75.9371C177.251 76.0804 177.486 76.2814 177.653 76.5393C177.818 76.7971 177.901 77.099 177.901 77.4447C177.901 77.6774 177.855 77.9057 177.763 78.1312C177.672 78.3559 177.509 78.6102 177.276 78.8904C177.043 79.1707 176.713 79.5121 176.289 79.9112L175.63 80.5263H178.051V81.5146H174.074Z" fill="#313131"/>
<path d="M181.232 80.5991C181.418 80.5991 181.587 80.5573 181.737 80.4723C181.888 80.3873 182.018 80.2627 182.126 80.0992C182.235 79.9364 182.318 79.7347 182.378 79.497C182.437 79.2571 182.466 78.9848 182.466 78.6794C182.466 78.2724 182.415 77.9252 182.312 77.6385C182.21 77.3532 182.066 77.135 181.88 76.9851C181.693 76.8346 181.477 76.7597 181.232 76.7597C181.045 76.7597 180.876 76.8022 180.725 76.8879C180.574 76.9729 180.443 77.0968 180.334 77.2603C180.224 77.4238 180.141 77.6248 180.083 77.864C180.024 78.1031 179.996 78.3754 179.996 78.6794C179.996 79.0871 180.047 79.4336 180.15 79.721C180.252 80.007 180.396 80.2245 180.581 80.3743C180.766 80.5242 180.983 80.5991 181.232 80.5991ZM181.232 81.6364C180.854 81.6364 180.517 81.56 180.221 81.4059C179.926 81.2517 179.676 81.0385 179.474 80.7655C179.271 80.4932 179.117 80.1784 179.01 79.8226C178.903 79.4653 178.849 79.0842 178.849 78.6794C178.849 78.2724 178.903 77.8899 179.01 77.534C179.117 77.1775 179.271 76.8627 179.474 76.5918C179.676 76.3203 179.926 76.1078 180.221 75.9543C180.517 75.7995 180.854 75.7231 181.232 75.7231C181.606 75.7231 181.941 75.7995 182.236 75.9543C182.53 76.1078 182.78 76.3203 182.983 76.5918C183.187 76.8627 183.343 77.1775 183.451 77.534C183.558 77.8899 183.612 78.2724 183.612 78.6794C183.612 79.0842 183.558 79.4653 183.451 79.8226C183.343 80.1784 183.187 80.4932 182.983 80.7655C182.78 81.0385 182.53 81.2517 182.236 81.4059C181.941 81.56 181.606 81.6364 181.232 81.6364Z" fill="#313131"/>
<path d="M185.694 81.5146V77.1335L184.353 77.6147L184.038 76.6826L186.719 75.7231H186.8V81.5146H185.694Z" fill="#313131"/>
<path d="M188.076 81.5146V80.7136L189.287 79.6158C189.665 79.2729 189.964 78.9841 190.184 78.7507C190.404 78.5173 190.561 78.3098 190.654 78.1283C190.748 77.9482 190.795 77.7667 190.795 77.5823C190.795 77.3129 190.703 77.1026 190.522 76.9542C190.342 76.8058 190.085 76.7316 189.753 76.7316C189.507 76.7316 189.27 76.7784 189.042 76.8713C188.814 76.9643 188.612 77.1026 188.436 77.287L188.023 76.4161C188.272 76.1942 188.557 76.0235 188.88 75.9032C189.203 75.7836 189.534 75.7231 189.875 75.7231C190.285 75.7231 190.643 75.7951 190.948 75.9371C191.253 76.0804 191.488 76.2814 191.655 76.5393C191.821 76.7971 191.904 77.099 191.904 77.4447C191.904 77.6774 191.857 77.9057 191.766 78.1312C191.673 78.3559 191.511 78.6102 191.278 78.8904C191.045 79.1707 190.715 79.5121 190.291 79.9112L189.631 80.5263H192.054V81.5146H188.076Z" fill="#313131"/>
<path d="M195.062 81.5146V75.8448H198.444V76.9426H196.261V81.5146H195.062Z" fill="#313131"/>
<path d="M201.969 80.5098C202.219 80.5098 202.451 80.4673 202.664 80.3808C202.878 80.2944 203.063 80.1712 203.224 80.0098C203.382 79.8499 203.507 79.6576 203.594 79.4336C203.682 79.2096 203.726 78.9582 203.726 78.6794C203.726 78.3098 203.648 77.9879 203.495 77.7141C203.341 77.4397 203.132 77.2272 202.868 77.0759C202.602 76.9254 202.304 76.8483 201.969 76.8483C201.72 76.8483 201.487 76.8929 201.273 76.9787C201.059 77.0658 200.871 77.189 200.715 77.3496C200.557 77.511 200.434 77.7026 200.346 77.9266C200.258 78.1514 200.214 78.4021 200.214 78.6794C200.214 79.0496 200.292 79.3716 200.445 79.6454C200.599 79.9198 200.808 80.1323 201.073 80.2843C201.337 80.4349 201.636 80.5098 201.969 80.5098ZM201.969 81.6364C201.536 81.6364 201.135 81.5615 200.768 81.4116C200.402 81.2625 200.083 81.0529 199.812 80.7864C199.54 80.5191 199.33 80.2058 199.181 79.8463C199.033 79.4869 198.959 79.0979 198.959 78.6794C198.959 78.2594 199.033 77.869 199.181 77.5088C199.33 77.1501 199.54 76.8368 199.812 76.5702C200.083 76.303 200.402 76.0941 200.768 75.9464C201.135 75.7973 201.536 75.7231 201.969 75.7231C202.4 75.7231 202.798 75.7987 203.165 75.95C203.53 76.1013 203.849 76.3124 204.121 76.5818C204.393 76.8512 204.604 77.166 204.754 77.524C204.905 77.8812 204.981 78.2666 204.981 78.6794C204.981 79.0979 204.905 79.4869 204.754 79.8463C204.604 80.2058 204.393 80.5191 204.121 80.7864C203.849 81.0529 203.53 81.2625 203.165 81.4116C202.798 81.5615 202.4 81.6364 201.969 81.6364Z" fill="#313131"/>
<path d="M205.463 82.9488V80.4982L206.18 80.5314L206.573 80.4176H211.782V82.9488H210.644V81.5146H206.602V82.9488H205.463ZM209.672 81.5146V76.9426H207.776V77.493C207.776 78.155 207.742 78.7212 207.674 79.193C207.608 79.6641 207.5 80.0545 207.352 80.365C207.205 80.6754 207.011 80.9211 206.767 81.1019C206.525 81.2827 206.229 81.4152 205.881 81.4988L205.463 80.4982C205.701 80.4449 205.896 80.3614 206.049 80.2512C206.201 80.1409 206.321 79.9767 206.407 79.7599C206.493 79.5416 206.553 79.2506 206.587 78.8847C206.621 78.5187 206.638 78.0549 206.638 77.493V75.8448H210.87V81.5146H209.672Z" fill="#313131"/>
<path d="M214.058 79.2873H215.641L214.84 77.1616L214.058 79.2873ZM212.032 81.5146L214.179 75.8448H215.544L217.723 81.5146H216.374L215.933 80.3001H213.774L213.346 81.5146H212.032Z" fill="#313131"/>
<path d="M173.218 11.193H34.7145C32.7811 11.193 31.2144 9.62409 31.2144 7.69286H173.218V11.193Z" fill="#313131"/>
</svg>
