<svg width="149" height="60" viewBox="0 0 149 60" fill="none" xmlns="http://www.w3.org/2000/svg">
<path d="M0 10C0 4.47715 4.47715 0 10 0H30V30H0V10Z" fill="#0094FF"/>
<path d="M30 40C30 34.4772 34.4772 30 40 30H60V60H30V40Z" fill="#0094FF"/>
<path d="M0 40C0 34.4772 4.47715 30 10 30H30V60H0V40Z" fill="#0066FF"/>
<path d="M30 10C30 4.47715 34.4772 0 40 0H60V30H30V10Z" fill="#0066FF"/>
<path d="M0 40C0 34.4772 4.47715 30 10 30H30V60H0V40Z" fill="#0066FF"/>
<path d="M91.4787 24.348C91.3764 23.3168 90.9375 22.5156 90.1619 21.9446C89.3864 21.3736 88.3338 21.0881 87.0043 21.0881C86.1009 21.0881 85.3381 21.2159 84.7159 21.4716C84.0938 21.7188 83.6165 22.0639 83.2841 22.5071C82.9602 22.9503 82.7983 23.4531 82.7983 24.0156C82.7813 24.4844 82.8793 24.8935 83.0923 25.2429C83.3139 25.5923 83.6165 25.8949 84 26.1506C84.3835 26.3977 84.8267 26.6151 85.3295 26.8026C85.8324 26.9815 86.3693 27.1349 86.9403 27.2628L89.2926 27.8253C90.4347 28.081 91.483 28.4219 92.4375 28.848C93.392 29.2741 94.2188 29.7983 94.9176 30.4205C95.6165 31.0426 96.1577 31.7756 96.5412 32.6193C96.9332 33.4631 97.1335 34.4304 97.142 35.5213C97.1335 37.1236 96.7244 38.5128 95.9148 39.6889C95.1136 40.8565 93.9545 41.7642 92.4375 42.4119C90.929 43.0511 89.1094 43.3707 86.9787 43.3707C84.8651 43.3707 83.0241 43.0469 81.456 42.3991C79.8963 41.7514 78.6776 40.7926 77.7997 39.5227C76.9304 38.2443 76.4744 36.6634 76.4318 34.7798H81.7884C81.848 35.6577 82.0994 36.3906 82.5426 36.9787C82.9943 37.5582 83.5952 37.9972 84.3452 38.2955C85.1037 38.5852 85.9602 38.7301 86.9148 38.7301C87.8523 38.7301 88.6662 38.5937 89.3565 38.321C90.0554 38.0483 90.5966 37.669 90.9801 37.1832C91.3636 36.6974 91.5554 36.1392 91.5554 35.5085C91.5554 34.9205 91.3807 34.4261 91.0312 34.0256C90.6903 33.625 90.1875 33.2841 89.5227 33.0028C88.8665 32.7216 88.0611 32.4659 87.1065 32.2358L84.2557 31.5199C82.0483 30.983 80.3054 30.1435 79.027 29.0014C77.7486 27.8594 77.1136 26.321 77.1222 24.3864C77.1136 22.8011 77.5355 21.4162 78.3878 20.2315C79.2486 19.0469 80.429 18.1222 81.929 17.4574C83.429 16.7926 85.1335 16.4602 87.0426 16.4602C88.9858 16.4602 90.6818 16.7926 92.1307 17.4574C93.5881 18.1222 94.7216 19.0469 95.5312 20.2315C96.3409 21.4162 96.7585 22.7884 96.7841 24.348H91.4787ZM100.865 43V16.8182H111.195C113.181 16.8182 114.873 17.1974 116.27 17.956C117.668 18.706 118.733 19.75 119.466 21.0881C120.208 22.4176 120.578 23.9517 120.578 25.6903C120.578 27.429 120.203 28.9631 119.453 30.2926C118.703 31.6222 117.617 32.6577 116.194 33.3991C114.779 34.1406 113.066 34.5114 111.054 34.5114H104.471V30.0753H110.159C111.225 30.0753 112.103 29.892 112.793 29.5256C113.492 29.1506 114.012 28.6349 114.353 27.9787C114.702 27.3139 114.877 26.5511 114.877 25.6903C114.877 24.821 114.702 24.0625 114.353 23.4148C114.012 22.7585 113.492 22.2514 112.793 21.8935C112.094 21.527 111.208 21.3438 110.134 21.3438H106.401V43H100.865ZM147.275 25.9844H141.675C141.573 25.2599 141.364 24.6165 141.049 24.054C140.734 23.483 140.329 22.9972 139.835 22.5966C139.34 22.196 138.769 21.8892 138.121 21.6761C137.482 21.4631 136.788 21.3565 136.038 21.3565C134.683 21.3565 133.502 21.6932 132.496 22.3665C131.491 23.0312 130.711 24.0028 130.157 25.2812C129.603 26.5511 129.326 28.0937 129.326 29.9091C129.326 31.7756 129.603 33.3437 130.157 34.6136C130.719 35.8835 131.504 36.8423 132.509 37.4901C133.515 38.1378 134.678 38.4616 135.999 38.4616C136.741 38.4616 137.427 38.3636 138.058 38.1676C138.697 37.9716 139.263 37.6861 139.758 37.3111C140.252 36.9276 140.661 36.4631 140.985 35.9176C141.317 35.3722 141.548 34.75 141.675 34.0511L147.275 34.0767C147.13 35.2784 146.768 36.4375 146.188 37.554C145.617 38.6619 144.846 39.6548 143.874 40.5327C142.911 41.402 141.761 42.0923 140.423 42.6037C139.093 43.1065 137.589 43.358 135.91 43.358C133.575 43.358 131.487 42.8295 129.646 41.7727C127.813 40.7159 126.364 39.1861 125.299 37.1832C124.242 35.1804 123.714 32.7557 123.714 29.9091C123.714 27.054 124.251 24.625 125.325 22.6222C126.398 20.6193 127.856 19.0937 129.697 18.0455C131.538 16.9886 133.609 16.4602 135.91 16.4602C137.427 16.4602 138.833 16.6733 140.129 17.0994C141.433 17.5256 142.587 18.1477 143.593 18.9659C144.599 19.7756 145.417 20.7685 146.048 21.9446C146.687 23.1207 147.096 24.4673 147.275 25.9844Z" fill="black"/>
</svg>
